<svg xmlns="http://www.w3.org/2000/svg" width="201" height="71"><path d="M60.417 46.749c-4.135-2.585-6.143-7.992-5.13-13.797C56.5 25.995 61.59 21.82 68.906 21.681 63.578 9.356 51.332.748 37.078.748c-19.143 0-34.65 15.506-34.65 34.65 0 19.143 15.507 34.65 34.65 34.65 14.433 0 26.798-8.827 32.006-21.371-.398.02-.795.04-1.173.04-2.803.02-5.467-.696-7.494-1.968zM26.72 43.807c-2.147-1.054-3.618-3.24-3.618-5.785 0-3.559 6.461-13.697 6.461-13.697s.477.735 1.153 1.888c2.823 5.308 4.592 9.781 4.592 11.65 0 3.638-2.684 6.6-6.003 6.6-.875 0-1.75-.22-2.585-.656zm10.377 7.872c-4.055 0-7.574-2.247-9.403-5.566a7.485 7.485 0 0 0 1.63.198c4.334 0 7.853-3.797 7.853-8.448 0-3.022-3.042-9.185-4.592-12.127a161.769 161.769 0 0 1 4.512-7.614S47.853 34.98 47.853 40.904c0 5.924-4.81 10.775-10.755 10.775z" fill="#237dac"/><path d="M193.33 27.287c-1.153-.994-1.432-1.73-.835-3.18l1.034-2.565h-4.91l-.518 1.868c-.775 2.744-2.365 5.01-4.75 6.66-.597.417-.955.557-1.372-.278-1.412-2.823-3.897-4.135-6.898-4.652-3.161-.537-10.536-.278-10.536-.278l-.239 1.252c-.398 1.928-1.252 3.598-3.022 4.652-.517.298-.914.497-1.252.198-.14-.139-.278-.357-.418-.735-2.624-7.455-12.106-7.574-16.062-3.876-3.459 3.24-4.075 7.335-3.32 11.748.497 2.843 1.849 5.248 4.433 6.76 6.76 3.975 14.97-.24 15.705-8.072.06-.616-.16-1.352.755-1.59 1.114-.279 2.068-.954 3.141-1.55.358.675.219 1.232.219 1.749.02 6.5.02 15.804.02 22.304l5.03.02-.02-12.405s.755.16 1.192.259c2.227.576 4.473.437 6.6-.398 4.036-1.61 5.387-5.01 5.666-9.005.06-.915.258-1.491 1.172-1.869 1.67-.715 3.161-1.809 4.255-3.24.775-1.014 1.351-.676 1.968-.04 1.769 1.81 2.047 4.036 1.59 6.401-.616 3.121-3.121 4.87-6.222 4.394l-1.909-.279v4.076l1.054.258c3.876 1.054 8.707-.775 10.715-4.195 2.843-4.71 1.948-10.774-2.266-14.392zm-38.546 10.615c-.477 1.491-1.113 2.883-2.565 3.638-2.345 1.213-5.168.1-6.222-2.425-.517-1.272-.855-2.604-.735-3.777-.02-1.988.338-3.678 1.371-5.169 1.054-1.51 2.565-1.928 4.314-1.73 1.61.18 2.624 1.194 3.32 2.585l.457 1.074h-2.404v4.095h2.902c-.02.417-.437 1.71-.437 1.71zm22.742-.676c-.418 3.022-3.638 5.825-7.077 3.857-.636-.358-.935-.298-.915-1.054V29.056h1.213c2.385.04 4.671.239 6.162 2.545-.755.576-1.948.636-1.948.636v3.817l1.531-.06c.457-.02 1.193-.06 1.193-.06zm-49.043-8.886v-3.558l-4.89-.02v12.544c-.02 1.988-1.67 3.658-3.459 3.658-1.69 0-2.366-.994-2.385-3.519V11.742h-7.376v4.154h1.79c.675.1.576.875.596 1.372.02 1.809-.06 3.618.02 5.407.06 1.133-.398 1.391-1.412 1.372-1.71-.02-3.38.218-4.99.795-5.705 2.027-8.866 8.19-7.494 14.492.656 3.061 1.988 5.665 5.208 6.56 3.698 1.034 7.058.378 9.463-2.982 2.107 3.041 4.055 3.777 7.137 2.962 1.033-.278 2.982-1.193 2.982-1.193v1.372h5.248l.02-9.76c0-2.406 1.013-4.672 3.2-6.144.517-.357.855-.616 1.412-.437.675.219.596 1.431.596 1.431v1.69h4.274v-8.608l-1.392.02c-3.439-.06-8.548 4.095-8.548 4.095zm-16.002 9.523c-.696 2.186-2.724 3.618-4.97 3.439-2.008-.16-3.22-1.55-3.519-4.036-.457-3.817 1.113-6.997 4.056-8.369 1.252-.576 2.544-.477 3.856-.437.736.02.875.497.855 1.113-.02 1.153 0 2.286 0 3.757-.08 1.272.238 2.922-.278 4.533zM91.09 25.18c-3.657-1.73-7.355-1.69-10.754.616-3.618 2.445-4.712 6.222-4.433 10.317.06.835.298 1.948.298 1.948s-1.272 1.273-1.79 1.77c-1.311 1.272-2.902 1.928-4.67 2.127-3.281.377-5.925-1.253-6.76-4.135-.994-3.479.477-7.475 3.26-8.807a5.81 5.81 0 0 1 1.85-.517h-.04.079-.04c.278 0 1.829.06 1.829 1.69l.02 2.048h4.353v-7.753s-1.61-.199-3.34-.358c-6.62-.557-12.006 2.227-13.239 9.224-.835 4.79.756 9.304 4.036 11.351 4.313 2.704 11.49 1.928 15.088-1.65.338-.338.855-.795.855-.795s.417.437.735.775c3.161 3.499 8.608 4.314 12.743 2.048 3.857-2.107 5.884-7.037 5.05-12.206-.537-3.34-1.929-6.183-5.13-7.693zm-.974 14.273c-.735 1.63-2.067 2.525-3.856 2.564-1.849.02-3.28-.735-4.095-2.445-1.412-3.002-1.432-6.003.119-8.945.815-1.551 2.028-2.167 3.737-2.187 1.929-.12 3.28.815 4.056 2.465 1.351 2.823 1.312 5.725.04 8.548z" fill="#fff"/><path d="M28.039 44.23c-2.878-.822-4.869-3.348-4.869-6.175 0-1.788 1.858-5.98 5.023-11.337 1.498-2.534 1.312-2.42 2.015-1.234 2.187 3.696 4.736 9.757 4.988 11.863.314 2.616-1.511 5.75-3.86 6.628-1.06.397-2.432.503-3.297.256z" fill="#5ca9d6"/><path d="M34.758 51.276c-1.892-.446-3.862-1.623-5.316-3.178-.768-.82-1.396-1.552-1.396-1.624 0-.073.66-.137 1.468-.143 1.695-.013 3.899-.895 5.134-2.053.467-.438 1.23-1.592 1.697-2.566 1.567-3.273 1.139-5.972-1.995-12.556l-1.623-3.41 1.45-2.492c2.505-4.303 2.773-4.708 3.016-4.558.414.256 4.774 7.828 6.68 11.6 3.644 7.214 4.432 10.624 3.252 14.071-1.704 4.98-7.296 8.105-12.367 6.91z" fill="#fff"/></svg>