<svg xmlns="http://www.w3.org/2000/svg" width="223" height="48"><path d="M60.153 11.684c-2.921-.02-4.727.29-5.412.93-.731.553-1.097 1.99-1.097 4.313v14.956c0 2.427.38 3.926 1.13 4.49.757.564 2.57.857 5.447.877 2.852.023 4.657-.27 5.411-.878.754-.61 1.13-2.093 1.13-4.46V26.32h-5.724v5.942c0 .58-.272.845-.817.804-.283.02-.498-.07-.641-.274-.138-.201-.211-.516-.211-.944V17.151c0-.854.25-1.279.746-1.279.619 0 .924.414.924 1.245v3.291h5.725v-3.45c.022-2.28-.34-3.74-1.095-4.379-.8-.574-2.638-.873-5.516-.895zm20.617 1.23c-.98-.62-2.328-1.23-5.283-1.23h-6.61v25.568h5.826V27.09h.347c.533 0 .891.104 1.079.303.184.206.277.55.277 1.04v8.82h5.827v-8.309c0-1.17-.157-2.045-.48-2.622-.407-.722-1.144-1.245-2.21-1.566 1.157-.383 1.917-.991 2.283-1.82.272-.64.408-1.748.408-3.324v-2.127c0-2.385-.487-3.909-1.464-4.57zm-4.363 8.423c0 .701-.394 1.055-1.18 1.055l-.524-.065v-6.488h.524c.53 0 .888.088 1.075.257l.105 1.151zm14.039-.223v-5.241h3.897v-4.189l-9.69.064v25.503l9.69-.062v-4.188h-3.897v-7.765h3.897v-4.122zm9.2-9.43L96.17 37.251h5.42l.407-5.047h2.352l.443 5.047h5.485l-3.612-25.567zm2.69 16.334l.804-9.813.899 9.841zm19.56-12.145l-.036-4.189h-11.82l.03 4.189h3.035V37.25h5.813l-.053-21.378zm2.281-4.189v25.567h5.89l.006-25.567zm18.639 25.566l3.543-25.566h-5.555l-1.293 17.004-1.33-17.004-5.52.033 3.678 25.534zm11.618-16.136v-5.241h3.557v-4.138l-9.348.013v25.503l9.348-.062v-4.188h-3.557v-7.765h3.557v-4.122zm21.843-8.631c-.771-.532-2.523-.799-5.249-.799h-6.575v25.567h6.644c2.727 0 4.464-.268 5.213-.798.932-.64 1.398-2.16 1.398-4.57V27.76c0-1.214-.15-2.088-.443-2.62-.343-.705-1.06-1.238-2.148-1.6 1.749-.38 2.625-1.67 2.625-3.866v-2.682c0-2.366-.49-3.867-1.465-4.509zm-4.36 19.848c0 .596-.412.862-1.23.798l-.473-.031v-7.384h.45c.58.023.932.113 1.062.273.128.16.19.494.19 1.007zm0-11.985c0 .597-.404.874-1.205.83l-.5-.032v-5.305h.442l1.021.257c.16.172.242.5.242.992zm8.174-8.662V37.22l10.14.03v-4.184h-4.344V11.684zm22.929.735c-.746-.49-2.485-.736-5.21-.736-2.93 0-4.737.32-5.417.96-.704.533-1.058 1.97-1.058 4.314v14.924c0 2.364.388 3.846 1.157 4.442.773.597 2.569.908 5.384.929 2.865.021 4.674-.276 5.436-.896.764-.616 1.144-2.098 1.144-4.443V16.958c-.001-2.386-.477-3.899-1.435-4.539zm-4.29 19.877c0 .535-.275.78-.834.737-.578-.022-.871-.45-.871-1.277v-15.15c0-.49.273-.722.82-.7.59 0 .886.404.886 1.211zm21.252 1.525c.05-.528.077-1.127.077-1.812V16.894c0-2.364-.565-3.622-1.495-4.261-.75-.49-2.387-.98-5.117-.98-2.883 0-4.365.552-5.139 1.159-.77.607-1.502 1.802-1.502 4.082v15.114c0 1.899.53 2.73 1.094 3.487.57.756 1.572 1.486 3.506 1.591l4.225.001 2.68-.31 1.608 1.612 2.308-2.316zm-5.613-1.525c0 .513-.305.8-.921.866-.52-.043-.782-.48-.782-1.312V16.576c0-.513.272-.767.817-.767.612 0 .909.405.886 1.213z" fill="#fff"/><path d="M29.69 14.315h-1.4v6.942l1.425.029c.749.062 1.126-.189 1.126-.75v-5.019c0-.48-.058-.796-.176-.946-.119-.15-.441-.236-.974-.256zm0 9.811h-1.4v6.943l1.425.03c.749.06 1.126-.19 1.126-.752V25.33c0-.48-.058-.798-.176-.947-.119-.149-.441-.236-.974-.256z" fill="#ff5a14"/><path d="M44.079 39V6.862a5.238 5.238 0 0 0-5.24-5.24H6.7a5.24 5.24 0 0 0-5.238 5.24V39A5.242 5.242 0 0 0 6.7 44.243h32.14c.39 0 .763-.05 1.13-.13l3.25 3.251 3.827-3.83-3.17-3.17A5.26 5.26 0 0 0 44.08 39zM21.136 19.115h-3.865V16.02c0-.783-1.07-1.173-1.634-1.173-.456 0-1.472.401-1.472 1.205v13.82c0 .402.067.697.196.888.13.19 1.21.276 1.47.255.499.04 1.44-.21 1.44-.753v-5.588h3.865v5.261c0 2.223-.343 3.62-1.037 4.192-.69.57-1.6.845-4.217.826-2.638-.019-4.102-.493-4.795-1.023-.69-.534-1.23-1.742-1.23-4.026V15.839c0-2.183.779-3.586 1.448-4.106.628-.6 1.835-.842 4.515-.822 2.635.02 3.582.301 4.314.842.69.602 1.026 1.974 1.003 4.118zm14.549-.693c0 2.065-.8 3.277-2.404 3.637.998.341 1.655.84 1.964 1.502.272.5.41 1.321.41 2.463v3.879c0 2.266-.43 3.7-1.282 4.3-.69.5-2.282.748-4.777.748h-6.087V10.908h6.024c2.498 0 4.103.252 4.808.751.894.601 1.343 2.016 1.343 4.239z" fill="#ff5a14"/><path d="M14.573 34.849c-2.81-.283-3.811-.858-4.362-2.505-.222-.664-.239-1.308-.239-9.332v-8.619l.3-.864c.406-1.179 1.122-1.98 2.01-2.253.901-.277 4.103-.396 5.52-.205 2.817.38 3.251 1.138 3.251 5.673v2.38h-3.759v-1.75c0-1.588-.023-1.774-.263-2.014-.809-.808-2.492-.602-2.854.349-.084.22-.117 2.944-.094 7.577.034 6.744.052 7.25.268 7.465.185.186.448.232 1.315.232 1.692 0 1.629.13 1.629-3.39v-2.896h3.779l-.054 3.79c-.034 2.406-.11 3.963-.206 4.26-.235.726-.693 1.319-1.256 1.63-.794.438-3.126.659-4.985.472zm8.943-11.914V10.933l4.439.061c5.533.076 6.12.194 6.934 1.39.545.8.615 1.322.615 4.537 0 2.87-.016 3.075-.279 3.564-.357.664-.746 1.022-1.454 1.34l-.568.253.568.253c.806.358 1.383 1.006 1.618 1.812.163.561.19 1.325.15 4.28-.055 3.983-.15 4.564-.889 5.405-.769.875-2.318 1.096-7.732 1.103l-3.402.005zm7.203 7.926c.146-.2.184-.844.183-3.11-.001-1.573-.037-2.99-.08-3.15-.102-.382-.787-.583-1.798-.529l-.777.042-.035 3.367c-.02 1.853-.004 3.448.033 3.545.053.136.327.167 1.18.132.917-.038 1.143-.09 1.294-.297zm-.075-9.793c.244-.244.26-.432.26-3.226 0-3.657.059-3.52-1.558-3.555l-1.1-.023-.034 3.532-.034 3.531h1.103c.931 0 1.145-.04 1.363-.259z" fill="#fff"/></svg>