<svg xmlns="http://www.w3.org/2000/svg" version="1.0" width="308" height="26pt" viewBox="0 0 231 26"><g fill="#fff"><path d="M58.69 2.017c-1.607.887-1.275 3.714.444 4.49 1.722.42 3.18-.284 3.437-2.107.277-2.383-1.774-3.658-3.88-2.383zm44.46 10.81V24.19l5.011.016-.021-22.8h-4.99zm64.861-11.032c-.056.277-.11 2.328-.222 4.601-.11 2.273-.222 4.324-.277 4.49 0 .222-.942.056-2.051-.332-3.992-1.386-7.817.61-9.036 4.712-.776 2.716 0 5.987 1.94 7.816 1.386 1.275 5.224 1.342 7.304 1.33.674-.012 6.74.046 6.777.043V1.407h-2.218c-1.22 0-2.217.166-2.217.388zm-.776 13.748c1.8 4.161-2.052 5.943-4.879 4.49-1.664-1.123-1.58-3.879-.332-5.21 1.18-1.259 4.213-.832 5.21.72zM186.86 6.34v4.935l-1.996-.721c-5.6-1.94-10.921 3.27-9.203 9.036.887 2.938 2.883 4.601 5.876 4.934 1.386.166 2.939.152 3.493-.07.596.057 6.819.085 6.819.085V1.407h-4.99zm-.555 8.649c2.303 2.19.166 5.765-2.44 5.82-3.328.084-4.4-4.422-2.438-5.987 1.86-1.484 4.046-.831 4.878.167zm8.938 9.329l4.796-.002.125-4.283c.102-3.49.222-4.434 1.109-5.321 1.22-1.22 2.051-1.386 3.326-.555.61.388.887 1.774 1.053 5.211.167 5.1.444 5.433 3.825 4.879 1.165-.222 1.22-.5 1.22-5.156 0-5.322-.554-7.207-2.495-8.26-1.275-.665-5.266-.554-7.04.222-.887.388-.998 0-.998-4.601V1.407h-4.934zM39.121 4.234c-.124 7.06-.007 12.536 0 19.94 1.683-.026 3.755-.009 5.486.017-.008-2.08-.053-4.284.058-6.43l3.326-.388c3.992-.5 5.821-1.774 6.874-4.713.666-1.884.666-2.494 0-4.6-1.164-3.604-3.215-4.602-10.034-4.88-5.266-.221-5.377-.221-5.71 1.054zm9.923 4.546c1.608 2.44-.208 4.664-3.381 4.158-1.523-.024-3.066-2.667-1.053-4.657.842-.897 3.492-.942 4.434.499zm70.183 4.767v10.589h5.82c6.542 0 8.815-.72 9.702-3.105.998-2.66.665-4.656-1.164-6.486-1.441-1.386-1.608-1.885-1.109-2.716.333-.554.61-2.051.61-3.382 0-1.885-.333-2.716-1.386-3.714-1.275-1.22-2.051-1.386-6.93-1.552l-5.543-.222zm8.925-5.155c.776.942.178 2.616-1.33 3.215-1.585.24-2.933-1.075-2.384-2.66.388-1.664 2.495-1.997 3.714-.555zm.943 11.364c-.564.959-3.403.99-4.28-.592-.61-2.396.739-3.73 2.95-3.4 1.385.278 2.77 1.523 1.33 3.992zM57.693 17.15v7.128s4.283-.047 4.948-.031c.06-.339.04-2.55.04-7.096v-6.874h-4.988zm8.344-7.109c0 .333 4.96 6.39 4.96 6.61 0 .223-5.638 7.615-5.822 7.822.158-.011 4.93-.014 5.092-.026l4.278-4.303s4.248 4.073 4.576 4.328c.162.127 4.923-.034 4.923-.034s-5.84-7.62-5.84-7.842c0-.221 1.164-1.663 2.661-3.215l2.943-3.324s-5.644-.054-5.72-.02l-3.321 3.122-1.497-1.441c-.531-.506-1.286-1.435-1.839-1.66-.476-.06-4.733-.034-5.394-.017z"/><path d="M88.072 11.164c-4.546 2.439-4.213 10.477.443 12.695 2.273 1.053 6.486 1.053 8.537 0 1.442-.777 2.772-2.329 2.772-3.327 0-.284-1.182-.24-3.043-.362-.864-.056-2.585.725-3.665.917-2.162.388-3.658-.665-3.049-2.218.222-.665 1.33-.831 5.322-.831 4.712 0 4.99-.056 4.99-1.164 0-1.996-1.719-4.934-3.382-5.766-1.996-1.053-6.985-1.053-8.925.056zm6.43 2.217c.5.166.738.665.738 1.109 0 .554-.527.826-2.523.826-2.08 0-3.647-.66-1.873-1.658 1.158-.814 2.439-.776 3.658-.277zm43.815-3.022s-.297 8.954.368 10.894c.776 2.218 3.382 3.437 7.318 3.437 6.32 0 7.705-1.718 7.484-9.313v-5.053h-4.602l-.166 4.665c-.166 4.878-.665 5.82-2.883 5.82-2.217 0-2.716-.942-2.882-5.82l-.041-4.686s-4.796-.123-4.596.056zm75.152 8.511c.222 3.714 3.492 6.153 7.428 5.598 1.345.238 9.009.183 9.009.183l-.083-14.097-2.107-.166c-1.164-.111-2.44.055-2.827.388-.388.332-.943.332-1.442.055-.443-.333-2.05-.554-3.492-.554-2.328 0-7.556 2.041-6.486 8.592zm10.865-3.327c2.107 3.215-1.995 6.93-4.878 4.324-1.33-1.164-1.33-4.324 0-5.1 1.718-1.053 3.88-.72 4.878.776z"/></g><path d="M6.691 2.515h8.316v8.093H6.69zM1.762 12.52c11.794 8.197 15.492 4.026 20.69-.721l5.983 5.479C26.822 23.486 6.318 32.95 1.762 12.52z" fill="#f9490c"/></svg>