<svg xmlns="http://www.w3.org/2000/svg" width="147" height="46.8" viewBox="0 0 26.45 8.422"><linearGradient id="a" gradientUnits="userSpaceOnUse" x1="593.933" y1="-267.1" x2="628.163" y2="-286.863" gradientTransform="matrix(.05874 0 0 -.05874 -14.539 -13.313)"><stop offset="0" stop-color="#c7140b"/><stop offset=".75" stop-color="#ff3c1f"/></linearGradient><path d="M23.605.198l-1.293 3.814-.797-3.11c-.18-.704-.413-.704-.546-.704 0 0-.29 0-.58.083l-.625 2.769 1.207 5.372h2.408L26.425.198z" fill="url(#a)"/><linearGradient id="b" gradientUnits="userSpaceOnUse" x1="502.536" y1="-287.936" x2="548.487" y2="-314.466" gradientTransform="matrix(.05874 0 0 -.05874 -14.539 -13.313)"><stop offset="0" stop-color="#c7140b"/><stop offset=".75" stop-color="#ff3c1f"/></linearGradient><path d="M17.525 4.021L16.535.91c-.211-.665-.515-.711-.699-.711 0 0-.345 0-.71.083v4.832l1.292 3.309h.378l1.264-.083z" fill="url(#b)"/><linearGradient id="c" gradientUnits="userSpaceOnUse" x1="568.942" y1="-369.998" x2="568.942" y2="-230.002" gradientTransform="matrix(.05874 0 0 -.05874 -14.539 -13.313)"><stop offset="0" stop-color="#ff3c1f"/><stop offset=".85" stop-color="#ff3c1f"/><stop offset=".95" stop-color="#f70"/></linearGradient><path d="M20.97.198h-2.187c-.164 0-.596 0-.715.705l-1.272 7.519h1.993l1.64-7.52c.154-.704.492-.704.54-.704z" fill="url(#c)"/><linearGradient id="d" gradientUnits="userSpaceOnUse" x1="260.851" y1="-305.71" x2="388.129" y2="-283.267" gradientTransform="matrix(.05874 0 0 -.05874 -14.539 -13.313)"><stop offset="0" stop-color="#ff3c1f"/><stop offset=".7" stop-color="#ff3c1f"/><stop offset="1" stop-color="#c7140b"/></linearGradient><path d="M7.724.28S7.37.199 7.019.199H0l.87 2.35h2.154v5.874h2.35V2.548h2.35z" fill="url(#d)"/><linearGradient id="e" gradientUnits="userSpaceOnUse" x1="442.037" y1="-370" x2="442.037" y2="-229.994" gradientTransform="matrix(.05874 0 0 -.05874 -14.539 -13.313)"><stop offset="0" stop-color="#ff3c1f"/><stop offset=".85" stop-color="#ff3c1f"/><stop offset=".95" stop-color="#f70"/></linearGradient><path d="M13.598.198a.705.705 0 0 0-.705.705v2.965L10.36.664a1.2 1.2 0 0 0-.936-.465L7.02.198s.587 0 .587.705v7.519h2.35v-4.48l3.198 4.043c.233.29.577.44.922.437h1.167V.902c0-.416.265-.704.594-.704z" fill="url(#e)"/></svg>