<svg xmlns="http://www.w3.org/2000/svg" width="44" height="40.3"><path d="M9.767 5.066H5.945c-.788.189-.705.527-.867.88v9.72L.517 20.228c-.256.429-.22.527.084.89l4.159 3.769v9.776c.032.64.502.993 1.066.993h4.198c.5.003.623-.246.687-.548v-1.57a.56.56 0 0 0-.517-.546H7.86v-7.755c-.013-.691-.253-1.378-.605-1.749l-2.833-2.833 2.924-2.924c.379-.457.48-.863.573-1.46V7.76h2.062c.61-.387.452-.21.7-.817 0 0 .04-.673 0-1.006-.231-.745-.273-.753-.914-.87zM20.2.094c-.424.025-1.288.212-1.408 1.323l-3.207 33.277v.002h.002l4.213 5.656 5.841-4.648.16-1.477H25.8l2.636-24.885h.002l.16-1.476h-.002l.534-5.33c.16-1.48-1.32-1.64-1.32-1.64l-7.376-.8s-.093-.01-.234-.002zm.945 2.51l5.584.643-.52 4.933-5.581-.683zm-.767 7.37l5.713.722-2.523 23.001c-.517-.046-5.796-.544-5.796-.544zm13.756-4.908h3.821c.789.189.705.527.868.88v9.72l4.56 4.561c.257.429.22.527-.084.89l-4.158 3.769v9.776c-.032.64-.503.993-1.066.993h-4.198c-.5.003-.623-.246-.687-.548v-1.57a.56.56 0 0 1 .517-.546h2.334v-7.755c.013-.691.253-1.378.604-1.749l2.833-2.833-2.923-2.924c-.38-.457-.48-.863-.574-1.46V7.76H33.92c-.609-.387-.451-.21-.7-.817 0 0-.039-.673 0-1.006.232-.745.274-.753.915-.87z" fill="#8d81ac"/></svg>