<svg xmlns="http://www.w3.org/2000/svg" width="85" height="84"><g fill="#f9bf26"><path d="M58.789 28.75c-.959 1.359-1.482 10.287-1.112 11.365.256.737.56 1.458 2.042 2.315 1.575-6.475 2.1-17.973-.93-13.68z"/><path d="M42.436 1.07c-22.837 0-41.35 18.514-41.35 41.351 0 22.839 18.513 41.35 41.35 41.35 22.838 0 41.35-18.513 41.35-41.35s-18.512-41.35-41.35-41.35zm20.232 54.622c-7.457 14.573-16.554 16.99-23.97 8.91-.772.521-1.6 1.057-2.405 1.624-3.078 2.16-6.252 4.198-10.116 2.067-4.09-2.257-5.07-6.383-4.583-10.406.723-5.957 4.358-17.733 4.358-17.733s3.55-9.3 1.99-12.712c-1.53-2.593-3.698-1.628-4.343.147-1.793 6.419 4.225 6.403.867 12.67-1.574 2.94-6.3 4.304-9.915 1.294-3.697-3.08-4.154-8.146-2.75-12.286 1.132-3.328 2.78-5.705 5.502-8.525 3.701-3.835 9.319-4.688 14.293-2.192 4.221 2.117 6.291 7 5.043 12.673-1.534 6.988-3.595 13.86-5.15 20.844 0 0-1.12 6.08 2.026 7.076 3.478.406 4.533-4.679 4.533-4.679.444-4.637.021-9.915 1.582-14.255.658-1.83 2.612-5.172 5.944-4.064 3.183 1.058 2.834 4.742 2.643 6.72-.417 4.236-2.73 7.902-3.694 12.108-.334 1.452-.47 3.338 1.235 4.47 1.706 1.13 4.572-.891 4.572-.891s5.337-3.168 5.502-9.997c-3.934-4.65-4.461-6.917-4.461-6.917-1.494-4.897.241-12.27.241-12.27.748-4.984 3.908-8.16 8.067-8.307 3.02-.105 7.19 2.448 7.504 9.316 0 0 .485 3.274-2.759 18.421.485.76.479 1.124 1.502 1.74 1.797 1.084 3.608 1.274 4.87.516 2.215-1.333 3.531-3.731 4.55-6.161 3.298-1.732-.016 4.528-1.297 6.609-2.633 4.31-6.383 6.235-11.381 4.19z"/></g></svg>