<?xml version="1.0" encoding="UTF-8" standalone="no"?>
<svg
   xmlns:dc="http://purl.org/dc/elements/1.1/"
   xmlns:cc="http://creativecommons.org/ns#"
   xmlns:rdf="http://www.w3.org/1999/02/22-rdf-syntax-ns#"
   xmlns:svg="http://www.w3.org/2000/svg"
   xmlns="http://www.w3.org/2000/svg"
   xmlns:sodipodi="http://sodipodi.sourceforge.net/DTD/sodipodi-0.dtd"
   xmlns:inkscape="http://www.inkscape.org/namespaces/inkscape"
   width="147"
   height="46.799999"
   viewBox="0 0 26.450495 8.4219604"
   version="1.1"
   id="svg1971"
   sodipodi:docname="the-next-web-tnw.svg"
   inkscape:version="0.92.4 (5da689c313, 2019-01-14)">
  <metadata
     id="metadata1977">
    <rdf:RDF>
      <cc:Work
         rdf:about="">
        <dc:format>image/svg+xml</dc:format>
        <dc:type
           rdf:resource="http://purl.org/dc/dcmitype/StillImage" />
        <dc:title></dc:title>
      </cc:Work>
    </rdf:RDF>
  </metadata>
  <defs
     id="defs1975" />
  <sodipodi:namedview
     pagecolor="#ffffff"
     bordercolor="#666666"
     borderopacity="1"
     objecttolerance="10"
     gridtolerance="10"
     guidetolerance="10"
     inkscape:pageopacity="0"
     inkscape:pageshadow="2"
     inkscape:window-width="996"
     inkscape:window-height="598"
     id="namedview1973"
     showgrid="false"
     inkscape:zoom="2.1599805"
     inkscape:cx="159.69213"
     inkscape:cy="25.957024"
     inkscape:window-x="136"
     inkscape:window-y="15"
     inkscape:window-maximized="0"
     inkscape:current-layer="svg1971" />
  <linearGradient
     id="a"
     gradientUnits="userSpaceOnUse"
     x1="593.93298"
     y1="-267.10001"
     x2="628.16302"
     y2="-286.86301"
     gradientTransform="matrix(0.05874332,0,0,-0.05874332,-14.538971,-13.313074)">
    <stop
       offset="0"
       stop-color="#c7140b"
       id="stop1930" />
    <stop
       offset=".75"
       stop-color="#ff3c1f"
       id="stop1932" />
  </linearGradient>
  <path
     d="M 23.605297,0.19782386 22.311886,4.0115574 21.514857,0.90274358 C 21.334162,0.19753016 21.101716,0.19753016 20.969426,0.19753016 c 0,0 -0.290075,5.87e-5 -0.579973,0.083004 l -0.62497,2.76945354 1.206528,5.3719002 h 2.408477 l 3.045488,-8.2240643 z"
     id="path1935"
     inkscape:connector-curvature="0"
     style="fill:url(#a);stroke-width:0.05874331" />
  <linearGradient
     id="b"
     gradientUnits="userSpaceOnUse"
     x1="502.53601"
     y1="-287.936"
     x2="548.487"
     y2="-314.466"
     gradientTransform="matrix(0.05874332,0,0,-0.05874332,-14.538971,-13.313074)">
    <stop
       offset="0"
       stop-color="#c7140b"
       id="stop1937" />
    <stop
       offset=".75"
       stop-color="#ff3c1f"
       id="stop1939" />
  </linearGradient>
  <path
     d="M 17.524658,4.0210738 16.535245,0.90926408 C 16.323769,0.24423106 16.020301,0.19758886 15.836493,0.19758886 c 0,0 -0.345117,0 -0.711088,0.082946 V 5.113405 l 1.292353,3.3083659 0.377896,5.9e-5 1.264333,-0.08295 z"
     id="path1942"
     inkscape:connector-curvature="0"
     style="fill:url(#b);stroke-width:0.05874331" />
  <linearGradient
     id="c"
     gradientUnits="userSpaceOnUse"
     x1="568.94202"
     y1="-369.99799"
     x2="568.94202"
     y2="-230.002"
     gradientTransform="matrix(0.05874332,0,0,-0.05874332,-14.538971,-13.313074)">
    <stop
       offset="0"
       stop-color="#ff3c1f"
       id="stop1944" />
    <stop
       offset=".85"
       stop-color="#ff3c1f"
       id="stop1946" />
    <stop
       offset=".95"
       stop-color="#f70"
       id="stop1948" />
  </linearGradient>
  <path
     d="m 20.969426,0.19800006 -2.186721,5.271e-4 c -0.163482,0 -0.595774,-5.271e-4 -0.714905,0.70421482 L 16.795654,8.4218879 h 1.993807 l 1.640113,-7.51914432 c 0.153791,-0.70491972 0.490977,-0.70474352 0.539852,-0.70474352 z"
     id="path1951"
     inkscape:connector-curvature="0"
     style="fill:url(#c);stroke-width:0.05874331" />
  <linearGradient
     id="d"
     gradientUnits="userSpaceOnUse"
     x1="260.85101"
     y1="-305.70999"
     x2="388.129"
     y2="-283.267"
     gradientTransform="matrix(0.05874332,0,0,-0.05874332,-14.538971,-13.313074)">
    <stop
       offset="0"
       stop-color="#ff3c1f"
       id="stop1953" />
    <stop
       offset=".7"
       stop-color="#ff3c1f"
       id="stop1955" />
    <stop
       offset="1"
       stop-color="#c7140b"
       id="stop1957" />
  </linearGradient>
  <path
     d="m 7.7238058,0.28053444 c 0,0 -0.3524594,-0.082711 -0.7048608,-0.082711 H 0 L 0.87010593,2.5475564 H 3.0243409 V 8.4218879 H 5.3740733 V 2.5475564 h 2.3497325 z"
     id="path1960"
     inkscape:connector-curvature="0"
     style="fill:url(#d);stroke-width:0.05874331" />
  <linearGradient
     id="e"
     gradientUnits="userSpaceOnUse"
     x1="442.03699"
     y1="-370"
     x2="442.03699"
     y2="-229.994"
     gradientTransform="matrix(0.05874332,0,0,-0.05874332,-14.538971,-13.313074)">
    <stop
       offset="0"
       stop-color="#ff3c1f"
       id="stop1962" />
    <stop
       offset=".85"
       stop-color="#ff3c1f"
       id="stop1964" />
    <stop
       offset=".95"
       stop-color="#f70"
       id="stop1966" />
  </linearGradient>
  <path
     d="m 13.598079,0.19758886 c -0.389233,0 -0.70492,0.31586276 -0.70492,0.70515472 V 3.8678125 L 10.358972,0.6635408 C 10.128287,0.35889804 9.7574409,0.19911616 9.4231916,0.19911616 l -2.4043058,-0.00123 c 0,0 0.5873751,0 0.5873751,0.70497842 V 8.4219469 H 9.9559938 V 3.9413003 L 13.153745,7.984837 c 0.233739,0.2897806 0.577035,0.4392249 0.922504,0.4369339 h 1.166643 V 0.90262608 c 0,-0.41654886 0.265578,-0.70509592 0.59366,-0.70509592 z"
     id="path1969"
     inkscape:connector-curvature="0"
     style="fill:url(#e);stroke-width:0.05874331" />
</svg>
