<?xml version="1.0" encoding="UTF-8" standalone="no"?>
<!-- Generator: Adobe Illustrator 16.0.0, SVG Export Plug-In . SVG Version: 6.00 Build 0)  -->

<svg
   xmlns:dc="http://purl.org/dc/elements/1.1/"
   xmlns:cc="http://creativecommons.org/ns#"
   xmlns:rdf="http://www.w3.org/1999/02/22-rdf-syntax-ns#"
   xmlns:svg="http://www.w3.org/2000/svg"
   xmlns="http://www.w3.org/2000/svg"
   xmlns:sodipodi="http://sodipodi.sourceforge.net/DTD/sodipodi-0.dtd"
   xmlns:inkscape="http://www.inkscape.org/namespaces/inkscape"
   version="1.1"
   id="Capa_1"
   x="0px"
   y="0px"
   width="85"
   height="84"
   viewBox="0 0 85 84"
   xml:space="preserve"
   sodipodi:docname="web-designer-depot.svg"
   inkscape:version="0.92.4 (5da689c313, 2019-01-14)"><metadata
   id="metadata1879"><rdf:RDF><cc:Work
       rdf:about=""><dc:format>image/svg+xml</dc:format><dc:type
         rdf:resource="http://purl.org/dc/dcmitype/StillImage" /><dc:title></dc:title></cc:Work></rdf:RDF></metadata><defs
   id="defs1877" /><sodipodi:namedview
   pagecolor="#ffffff"
   bordercolor="#666666"
   borderopacity="1"
   objecttolerance="10"
   gridtolerance="10"
   guidetolerance="10"
   inkscape:pageopacity="0"
   inkscape:pageshadow="2"
   inkscape:window-width="439"
   inkscape:window-height="405"
   id="namedview1875"
   showgrid="false"
   inkscape:zoom="4.3707443"
   inkscape:cx="40.775586"
   inkscape:cy="50.519983"
   inkscape:window-x="424"
   inkscape:window-y="4"
   inkscape:window-maximized="0"
   inkscape:current-layer="Capa_1" />
<g
   id="g1842"
   transform="matrix(0.54151403,0,0,0.54151403,1.0852826,1.070099)"
   style="fill:#f9bf26;fill-opacity:1">
	<g
   id="g1840"
   style="fill:#f9bf26;fill-opacity:1">
		<path
   d="m 106.56,51.117 c -1.771,2.508 -2.736,18.995 -2.053,20.987 0.473,1.361 1.034,2.692 3.771,4.274 2.907,-11.957 3.879,-33.19 -1.718,-25.261 z"
   id="path1836"
   inkscape:connector-curvature="0"
   style="fill:#f9bf26;fill-opacity:1" />
		<path
   d="M 76.361,0 C 34.189,0 0.001,34.189 0.001,76.362 c 0,42.175 34.188,76.36 76.36,76.36 42.175,0 76.36,-34.188 76.36,-76.36 C 152.721,34.19 118.536,0 76.361,0 Z m 37.362,100.869 c -13.771,26.912 -30.569,31.375 -44.264,16.455 -1.426,0.961 -2.956,1.951 -4.441,2.998 -5.685,3.99 -11.546,7.752 -18.682,3.817 -7.554,-4.168 -9.361,-11.788 -8.464,-19.217 1.336,-11 8.049,-32.746 8.049,-32.746 0,0 6.555,-17.175 3.675,-23.476 -2.825,-4.789 -6.829,-3.006 -8.02,0.272 -3.312,11.853 7.801,11.824 1.6,23.396 -2.907,5.431 -11.633,7.95 -18.31,2.39 -6.827,-5.687 -7.671,-15.042 -5.076,-22.688 2.088,-6.146 5.132,-10.534 10.159,-15.743 6.835,-7.082 17.209,-8.656 26.394,-4.048 7.796,3.911 11.618,12.926 9.314,23.404 -2.833,12.904 -6.64,25.593 -9.511,38.492 0,0 -2.07,11.229 3.742,13.066 6.422,0.75 8.37,-8.639 8.37,-8.639 0.82,-8.564 0.039,-18.31 2.922,-26.326 1.215,-3.377 4.823,-9.55 10.976,-7.505 5.879,1.954 5.234,8.758 4.881,12.411 -0.771,7.823 -5.041,14.592 -6.822,22.36 -0.617,2.68 -0.866,6.164 2.281,8.252 3.15,2.088 8.443,-1.644 8.443,-1.644 0,0 9.855,-5.85 10.161,-18.461 -7.266,-8.588 -8.239,-12.773 -8.239,-12.773 -2.758,-9.043 0.446,-22.659 0.446,-22.659 1.38,-9.203 7.216,-15.069 14.897,-15.341 5.576,-0.194 13.277,4.521 13.857,17.204 0,0 0.896,6.046 -5.095,34.018 0.896,1.403 0.884,2.075 2.774,3.212 3.318,2.002 6.662,2.354 8.992,0.954 4.092,-2.462 6.522,-6.89 8.404,-11.378 6.09,-3.197 -0.031,8.363 -2.396,12.205 -4.862,7.959 -11.788,11.515 -21.017,7.738 z"
   id="path1838"
   inkscape:connector-curvature="0"
   style="fill:#f9bf26;fill-opacity:1" />
	</g>
</g>
<g
   id="g1844"
   transform="translate(0,-68.722)">
</g>
<g
   id="g1846"
   transform="translate(0,-68.722)">
</g>
<g
   id="g1848"
   transform="translate(0,-68.722)">
</g>
<g
   id="g1850"
   transform="translate(0,-68.722)">
</g>
<g
   id="g1852"
   transform="translate(0,-68.722)">
</g>
<g
   id="g1854"
   transform="translate(0,-68.722)">
</g>
<g
   id="g1856"
   transform="translate(0,-68.722)">
</g>
<g
   id="g1858"
   transform="translate(0,-68.722)">
</g>
<g
   id="g1860"
   transform="translate(0,-68.722)">
</g>
<g
   id="g1862"
   transform="translate(0,-68.722)">
</g>
<g
   id="g1864"
   transform="translate(0,-68.722)">
</g>
<g
   id="g1866"
   transform="translate(0,-68.722)">
</g>
<g
   id="g1868"
   transform="translate(0,-68.722)">
</g>
<g
   id="g1870"
   transform="translate(0,-68.722)">
</g>
<g
   id="g1872"
   transform="translate(0,-68.722)">
</g>
</svg>