<?xml version="1.0" encoding="UTF-8" standalone="no"?>
<!-- Svg Vector Icons : http://www.onlinewebfonts.com/icon -->

<svg
   xmlns:dc="http://purl.org/dc/elements/1.1/"
   xmlns:cc="http://creativecommons.org/ns#"
   xmlns:rdf="http://www.w3.org/1999/02/22-rdf-syntax-ns#"
   xmlns:svg="http://www.w3.org/2000/svg"
   xmlns="http://www.w3.org/2000/svg"
   xmlns:sodipodi="http://sodipodi.sourceforge.net/DTD/sodipodi-0.dtd"
   xmlns:inkscape="http://www.inkscape.org/namespaces/inkscape"
   version="1.1"
   x="0px"
   y="0px"
   viewBox="0 0 201 84"
   enable-background="new 0 0 1000 1000"
   xml:space="preserve"
   id="svg3879"
   sodipodi:docname="coddrops-color.svg"
   width="201"
   height="84"
   inkscape:version="0.92.4 (5da689c313, 2019-01-14)"><defs
   id="defs3883"><radialGradient
     id="SVGID_1_"
     cx="199.5244"
     cy="68.7817"
     r="69.516602"
     gradientUnits="userSpaceOnUse"><stop
       offset="0"
       style="stop-color:#EB5C2E"
       id="stop3192" /><stop
       offset="1"
       style="stop-color:#E8352E"
       id="stop3194" /></radialGradient></defs><sodipodi:namedview
   pagecolor="#ffffff"
   bordercolor="#666666"
   borderopacity="1"
   objecttolerance="10"
   gridtolerance="10"
   guidetolerance="10"
   inkscape:pageopacity="0"
   inkscape:pageshadow="2"
   inkscape:window-width="1366"
   inkscape:window-height="705"
   id="namedview3881"
   showgrid="false"
   inkscape:zoom="3.466062"
   inkscape:cx="103.08027"
   inkscape:cy="23.653727"
   inkscape:window-x="-8"
   inkscape:window-y="-8"
   inkscape:window-maximized="1"
   inkscape:current-layer="svg3879" />
<metadata
   id="metadata3833"> Svg Vector Icons : http://www.onlinewebfonts.com/icon <rdf:RDF><cc:Work
     rdf:about=""><dc:format>image/svg+xml</dc:format><dc:type
       rdf:resource="http://purl.org/dc/dcmitype/StillImage" /><dc:title></dc:title></cc:Work></rdf:RDF></metadata>
<g
   id="g3847"
   transform="matrix(0.19437696,0,0,0.19437696,0.48499235,-48.02117)" /><g
   id="g3849"
   transform="matrix(0.19437696,0,0,0.19437696,0.48499235,-48.02117)" /><g
   id="g3851"
   transform="matrix(0.19437696,0,0,0.19437696,0.48499235,-48.02117)" /><g
   id="g3853"
   transform="matrix(0.19437696,0,0,0.19437696,0.48499235,-48.02117)" /><g
   id="g3855"
   transform="matrix(0.19437696,0,0,0.19437696,0.48499235,-48.02117)" /><g
   id="g3857"
   transform="matrix(0.19437696,0,0,0.19437696,0.48499235,-48.02117)" /><g
   id="g3859"
   transform="matrix(0.19437696,0,0,0.19437696,0.48499235,-48.02117)" /><g
   id="g3861"
   transform="matrix(0.19437696,0,0,0.19437696,0.48499235,-48.02117)" /><g
   id="g3863"
   transform="matrix(0.19437696,0,0,0.19437696,0.48499235,-48.02117)" /><g
   id="g3865"
   transform="matrix(0.19437696,0,0,0.19437696,0.48499235,-48.02117)" /><g
   id="g3867"
   transform="matrix(0.19437696,0,0,0.19437696,0.48499235,-48.02117)" /><g
   id="g3869"
   transform="matrix(0.19437696,0,0,0.19437696,0.48499235,-48.02117)" /><g
   id="g3871"
   transform="matrix(0.19437696,0,0,0.19437696,0.48499235,-48.02117)" /><g
   id="g3873"
   transform="matrix(0.19437696,0,0,0.19437696,0.48499235,-48.02117)" /><g
   id="g3875"
   transform="matrix(0.19437696,0,0,0.19437696,0.48499235,-48.02117)" />
<g
   id="g674"
   transform="translate(0,7)"><path
     style="fill:#237dac;fill-opacity:1;stroke-width:0.19879307"
     d="M 60.416698,46.748667 C 56.281802,44.164358 54.273992,38.757187 55.287837,32.952429 56.500474,25.994672 61.589577,21.820018 68.905161,21.680863 63.577508,9.3556924 51.331855,0.74795315 37.078392,0.74795315 c -19.143771,0 -34.64963,15.50585885 -34.64963,34.64963085 0,19.143771 15.505859,34.64963 34.64963,34.64963 14.432376,0 26.797305,-8.826412 32.005684,-21.370254 -0.397587,0.01988 -0.795173,0.03975 -1.172879,0.03975 -2.802983,0.01988 -5.46681,-0.695775 -7.494499,-1.968051 z M 26.721274,43.80653 c -2.146965,-1.053603 -3.618034,-3.240327 -3.618034,-5.784878 0,-3.558396 6.460775,-13.696842 6.460775,-13.696842 0,0 0.477103,0.735534 1.152999,1.888534 2.822862,5.307775 4.59212,9.780619 4.59212,11.649273 0,3.637914 -2.683706,6.59993 -6.00355,6.59993 -0.87469,0 -1.749379,-0.218672 -2.58431,-0.656017 z m 10.376998,7.872205 c -4.055378,0 -7.574015,-2.246362 -9.402912,-5.566206 0.536741,0.119276 1.073482,0.198794 1.630103,0.198794 4.333688,0 7.852326,-3.796948 7.852326,-8.448706 0,-3.021653 -3.041534,-9.184239 -4.592119,-12.126376 2.365637,-4.254171 4.512602,-7.613775 4.512602,-7.613775 0,0 10.754704,16.857652 10.754704,22.781686 0,5.924032 -4.810792,10.774583 -10.754704,10.774583 z"
     id="path3835"
     inkscape:connector-curvature="0" /><g
     transform="matrix(1.0227193,0,0,1.0227193,-0.05517968,-1.5914209)"
     style="fill:#ffffff;fill-opacity:1"
     id="g4520"><path
       inkscape:connector-curvature="0"
       id="path3837"
       d="m 189.08896,28.23673 c -1.12739,-0.971885 -1.39952,-1.69108 -0.81639,-3.110031 l 1.01076,-2.507463 h -4.80111 l -0.50538,1.827143 c -0.75807,2.682402 -2.31308,4.8983 -4.64561,6.511628 -0.58313,0.408192 -0.93301,0.544256 -1.3412,-0.272127 -1.38007,-2.760153 -3.80979,-4.043041 -6.74488,-4.548421 -3.09059,-0.524818 -10.30198,-0.272128 -10.30198,-0.272128 l -0.23325,1.224575 c -0.38875,1.885456 -1.22457,3.518223 -2.95453,4.548421 -0.50538,0.291565 -0.89413,0.485942 -1.22457,0.194377 -0.13607,-0.136064 -0.27213,-0.349879 -0.4082,-0.719195 -2.56577,-7.289136 -11.83755,-7.405762 -15.70565,-3.790351 -3.38216,3.168345 -3.98473,7.17251 -3.2461,11.487679 0.48594,2.77959 1.80771,5.131551 4.33461,6.608816 6.60881,3.887539 14.63658,-0.233252 15.35578,-7.891704 0.0583,-0.602569 -0.1555,-1.321764 0.73863,-1.555016 1.08851,-0.272128 2.02152,-0.933009 3.07116,-1.51614 0.34987,0.660881 0.21381,1.205137 0.21381,1.710517 0.0194,6.356127 0.0194,15.452968 0.0194,21.809095 l 4.91773,0.01944 -0.0194,-12.129123 c 0,0 0.73863,0.155502 1.16626,0.25269 2.17702,0.563694 4.37348,0.42763 6.45331,-0.388754 3.94586,-1.574453 5.26762,-4.898299 5.53975,-8.805276 0.0583,-0.894134 0.25269,-1.457827 1.14682,-1.827143 1.63277,-0.699757 3.09059,-1.768831 4.15967,-3.168345 0.75807,-0.991322 1.32176,-0.660881 1.92433,-0.03887 1.72995,1.76883 2.00208,3.945852 1.55502,6.258938 -0.60257,3.051718 -3.05172,4.762236 -6.084,4.295731 l -1.86602,-0.272128 v 3.984728 l 1.0302,0.25269 c 3.79035,1.030198 8.51371,-0.75807 10.47691,-4.101354 2.77959,-4.606734 1.9049,-10.535231 -2.21589,-14.072892 z m -37.6897,10.37973 c -0.4665,1.457827 -1.08851,2.818466 -2.50746,3.557098 -2.29365,1.1857 -5.0538,0.09719 -6.084,-2.371399 -0.50538,-1.244012 -0.83582,-2.546338 -0.71919,-3.693162 -0.0194,-1.94377 0.33044,-3.595974 1.3412,-5.053801 1.0302,-1.477265 2.50746,-1.885457 4.21798,-1.69108 1.57445,0.17494 2.56577,1.166262 3.24609,2.526901 l 0.44707,1.049635 h -1.01076 -1.3412 v 4.004166 h 1.22457 c 0.29157,0 1.61333,0 1.61333,0 -0.0194,0.408191 -0.42763,1.671642 -0.42763,1.671642 z m 22.23673,-0.660882 c -0.40819,2.95453 -3.5571,5.695245 -6.91982,3.770913 -0.62201,-0.349878 -0.91357,-0.291565 -0.89414,-1.030198 V 29.966685 h 1.1857 c 2.33253,0.03888 4.56786,0.233252 6.02569,2.488025 -0.73863,0.563693 -1.90489,0.622006 -1.90489,0.622006 v 3.732038 l 1.4967,-0.05831 c 0.44707,-0.01944 1.16626,-0.05831 1.16626,-0.05831 z"
       style="fill:#ffffff;fill-opacity:1;stroke-width:0.19437696" /><path
       inkscape:connector-curvature="0"
       id="path3839"
       d="M 125.68319,29.266928 V 25.78758 l -4.78167,-0.01944 v 12.265186 c -0.0194,1.943769 -1.63277,3.576536 -3.38216,3.576536 -1.6522,0 -2.31309,-0.971885 -2.33252,-3.440472 0,-0.369317 0,-0.75807 0,-1.127387 V 13.036452 h -7.21139 v 4.062478 h 1.74939 c 0.66089,0.09719 0.5637,0.855259 0.58313,1.341201 0.0194,1.768831 -0.0583,3.537661 0.0194,5.287054 0.0583,1.107948 -0.38875,1.360638 -1.38007,1.341201 -1.67165,-0.01944 -3.30441,0.213814 -4.87887,0.777507 -5.578614,1.982645 -8.669208,8.008331 -7.328007,14.170081 0.641444,2.993405 1.94377,5.539743 5.092677,6.414439 3.61541,1.010761 6.90038,0.369317 9.25234,-2.915654 2.0604,2.973968 3.96529,3.693162 6.97814,2.896217 1.01076,-0.272128 2.91565,-1.166262 2.91565,-1.166262 v 1.341201 h 5.13155 l 0.0194,-9.543909 c 0,-2.351961 0.99132,-4.567858 3.12947,-6.006248 0.50538,-0.349878 0.83582,-0.602568 1.38007,-0.427629 0.66089,0.213815 0.58314,1.399514 0.58314,1.399514 v 1.652204 h 4.1791 v -6.99757 -1.418952 l -1.36064,0.01944 c -3.36272,-0.05831 -8.35821,4.004165 -8.35821,4.004165 z m -15.64734,9.310656 c -0.68032,2.138147 -2.66297,3.537661 -4.85943,3.362722 -1.9632,-0.155502 -3.1489,-1.516141 -3.44047,-3.945853 -0.44707,-3.732037 1.08851,-6.842069 3.96529,-8.18327 1.22458,-0.563693 2.48803,-0.466504 3.77091,-0.427629 0.7192,0.01944 0.85526,0.485942 0.83582,1.088511 -0.0194,1.127386 0,2.235335 0,3.673725 -0.0777,1.244012 0.23326,2.857341 -0.27212,4.431794 z"
       style="fill:#ffffff;fill-opacity:1;stroke-width:0.19437696" /><path
       inkscape:connector-curvature="0"
       id="path3841"
       d="m 89.120886,26.176334 c -3.576536,-1.691079 -7.191947,-1.652204 -10.515793,0.602569 -3.537661,2.390836 -4.606734,6.083999 -4.334607,10.088164 0.05831,0.816383 0.291566,1.904894 0.291566,1.904894 0,0 -1.244013,1.244013 -1.749393,1.729955 -1.282888,1.244013 -2.837903,1.885457 -4.567858,2.079834 -3.20722,0.369316 -5.792434,-1.224575 -6.608817,-4.043041 -0.971885,-3.401597 0.466505,-7.308574 3.187782,-8.610899 0.563693,-0.272128 1.166262,-0.42763 1.807706,-0.505381 -0.01944,0 -0.03888,0 -0.03888,0 0,0 0.03888,0 0.07775,0 -0.01944,0 -0.01944,0 -0.03888,0 0.272128,0 1.788268,0.05831 1.788268,1.652205 l 0.01944,2.002082 h 4.256855 v -7.580701 c 0,0 -1.574453,-0.194377 -3.265533,-0.349879 -6.472753,-0.544255 -11.740368,2.177022 -12.945505,9.019091 -0.816384,4.684485 0.738632,9.096842 3.945852,11.098925 4.21798,2.643526 11.234988,1.885456 14.753211,-1.613329 0.330441,-0.330441 0.835821,-0.777508 0.835821,-0.777508 0,0 0.408192,0.427629 0.719195,0.75807 3.090593,3.421035 8.416522,4.21798 12.459563,2.002083 3.770913,-2.060396 5.753558,-6.880944 4.937175,-11.934745 -0.524818,-3.265533 -1.885457,-6.045124 -5.014926,-7.522389 z M 88.168439,40.1326 c -0.719195,1.593891 -2.02152,2.468587 -3.770913,2.507463 -1.807706,0.01944 -3.20722,-0.719195 -4.004165,-2.390837 -1.380077,-2.935092 -1.399515,-5.870184 0.116626,-8.746963 0.796945,-1.51614 1.982645,-2.118709 3.654287,-2.138147 1.885456,-0.116626 3.207219,0.796946 3.96529,2.410275 1.321763,2.760153 1.282888,5.598056 0.03888,8.358209 z"
       style="fill:#ffffff;fill-opacity:1;stroke-width:0.19437696" /></g><path
     inkscape:connector-curvature="0"
     id="path4522"
     d="m 28.038889,44.230587 c -2.877776,-0.823048 -4.868599,-3.3484 -4.868599,-6.175804 0,-1.787558 1.857373,-5.979427 5.023164,-11.336684 1.497508,-2.534131 1.311836,-2.4204 2.014224,-1.233787 2.18773,3.695949 4.73679,9.757092 4.988794,11.862333 0.313183,2.616314 -1.51159,5.749729 -3.860128,6.628429 -1.059767,0.39651 -2.43253,0.502881 -3.297455,0.255513 z"
     style="opacity:1;fill:#5ca9d6;fill-opacity:1;stroke:none;stroke-width:0.00223043;stroke-miterlimit:4;stroke-dasharray:none;stroke-opacity:1" /><path
     inkscape:connector-curvature="0"
     id="path4565"
     d="m 34.757614,51.276229 c -1.891586,-0.445813 -3.861661,-1.623728 -5.31584,-3.178366 -0.767648,-0.820676 -1.395723,-1.551473 -1.395723,-1.62399 0,-0.07252 0.660702,-0.136969 1.468228,-0.143224 1.694484,-0.01312 3.898766,-0.894482 5.134064,-2.052794 0.466671,-0.437587 1.230051,-1.592293 1.6964,-2.566013 1.567551,-3.272987 1.138761,-5.971643 -1.995061,-12.556226 L 32.72715,25.746457 34.1776,23.254284 c 2.504793,-4.303759 2.772217,-4.708007 3.015167,-4.557856 0.413983,0.255855 4.774402,7.828037 6.679493,11.599419 3.644276,7.214332 4.432535,10.624047 3.253073,14.071594 -1.703854,4.98033 -7.295894,8.104127 -12.367719,6.908788 z"
     style="opacity:1;fill:#ffffff;fill-opacity:1;stroke:none;stroke-width:0.00446085;stroke-miterlimit:4;stroke-dasharray:none;stroke-opacity:1" /></g></svg>