<?xml version="1.0" encoding="UTF-8" standalone="no"?>
<!-- Generator: Adobe Illustrator 16.0.0, SVG Export Plug-In . SVG Version: 6.00 Build 0)  -->

<svg
   xmlns:dc="http://purl.org/dc/elements/1.1/"
   xmlns:cc="http://creativecommons.org/ns#"
   xmlns:rdf="http://www.w3.org/1999/02/22-rdf-syntax-ns#"
   xmlns:svg="http://www.w3.org/2000/svg"
   xmlns="http://www.w3.org/2000/svg"
   xmlns:sodipodi="http://sodipodi.sourceforge.net/DTD/sodipodi-0.dtd"
   xmlns:inkscape="http://www.inkscape.org/namespaces/inkscape"
   version="1.1"
   id="Capa_1"
   x="0px"
   y="0px"
   width="223"
   height="84"
   viewBox="0 0 223 83.999996"
   xml:space="preserve"
   sodipodi:docname="creative-bloq.svg"
   inkscape:version="0.92.4 (5da689c313, 2019-01-14)"><metadata
   id="metadata1789"><rdf:RDF><cc:Work
       rdf:about=""><dc:format>image/svg+xml</dc:format><dc:type
         rdf:resource="http://purl.org/dc/dcmitype/StillImage" /><dc:title></dc:title></cc:Work></rdf:RDF></metadata><defs
   id="defs1787">
	

		
		
		
		
		
		
		
		
		
		
		
		
		
		
		
	</defs><sodipodi:namedview
   pagecolor="#ffffff"
   bordercolor="#666666"
   borderopacity="1"
   objecttolerance="10"
   gridtolerance="10"
   guidetolerance="10"
   inkscape:pageopacity="0"
   inkscape:pageshadow="2"
   inkscape:window-width="1366"
   inkscape:window-height="705"
   id="namedview1785"
   showgrid="false"
   inkscape:zoom="2.6377241"
   inkscape:cx="109.80953"
   inkscape:cy="18.085974"
   inkscape:window-x="-8"
   inkscape:window-y="-8"
   inkscape:window-maximized="1"
   inkscape:current-layer="Capa_1" />

<g
   id="g1754"
   transform="translate(0,-376.43301)">
</g>
<g
   id="g1756"
   transform="translate(0,-376.43301)">
</g>
<g
   id="g1758"
   transform="translate(0,-376.43301)">
</g>
<g
   id="g1760"
   transform="translate(0,-376.43301)">
</g>
<g
   id="g1762"
   transform="translate(0,-376.43301)">
</g>
<g
   id="g1764"
   transform="translate(0,-376.43301)">
</g>
<g
   id="g1766"
   transform="translate(0,-376.43301)">
</g>
<g
   id="g1768"
   transform="translate(0,-376.43301)">
</g>
<g
   id="g1770"
   transform="translate(0,-376.43301)">
</g>
<g
   id="g1772"
   transform="translate(0,-376.43301)">
</g>
<g
   id="g1774"
   transform="translate(0,-376.43301)">
</g>
<g
   id="g1776"
   transform="translate(0,-376.43301)">
</g>
<g
   id="g1778"
   transform="translate(0,-376.43301)">
</g>
<g
   id="g1780"
   transform="translate(0,-376.43301)">
</g>
<g
   id="g1782"
   transform="translate(0,-376.43301)">
</g>
<g
   id="g694"
   transform="translate(0,-18)"><g
     transform="matrix(0.96692856,0,0,0.96692856,0.04832071,34.665609)"
     style="fill:#ffffff"
     id="g2871"><path
       d="m 62.159929,13.464098 c -3.020859,-0.02132 -4.887821,0.298516 -5.596423,0.960506 -0.756703,0.57323 -1.135054,2.059857 -1.135054,4.46137 v 15.467272 c 0,2.510109 0.392732,4.060209 1.168773,4.642859 0.782983,0.584139 2.657384,0.887117 5.633614,0.90844 2.949948,0.02281 4.816414,-0.280664 5.596423,-0.90844 0.779016,-0.630254 1.168772,-2.164485 1.168772,-4.613107 v -5.782871 h -5.920228 v 6.145355 c 0,0.59951 -0.281656,0.873728 -0.844967,0.831083 -0.293061,0.02033 -0.515213,-0.0724 -0.662983,-0.282648 -0.142811,-0.208266 -0.21868,-0.533559 -0.21868,-0.976374 v -15.1995 c 0,-0.883646 0.25835,-1.322989 0.771579,-1.322989 0.640172,0 0.956043,0.427938 0.956043,1.287286 v 3.404168 h 5.920228 V 18.91771 c 0.02331,-2.35738 -0.35207,-3.866818 -1.132078,-4.528313 -0.827612,-0.594055 -2.728293,-0.902488 -5.705019,-0.925299 z"
       id="path1720"
       inkscape:connector-curvature="0"
       style="fill:#ffffff;stroke-width:0.49587303" /><path
       d="M 83.482469,14.736013 C 82.469401,14.094849 81.075006,13.464594 78.01894,13.464594 h -6.836601 v 26.441934 h 6.025353 V 29.396003 H 77.5672 c 0.551411,0 0.921332,0.106613 1.115218,0.312896 0.190416,0.21273 0.287111,0.568271 0.287111,1.075053 v 9.12208 h 6.025849 v -8.592984 c 0,-1.210922 -0.16215,-2.114898 -0.495377,-2.711433 -0.421492,-0.746785 -1.184145,-1.287783 -2.286967,-1.620018 1.197534,-0.396202 1.982997,-1.024969 2.361844,-1.882829 0.28116,-0.661495 0.421492,-1.806962 0.421492,-3.436897 v -2.199692 c 4.96e-4,-2.466969 -0.503311,-4.042853 -1.513901,-4.726166 z m -4.512444,8.710506 c 0,0.725462 -0.407112,1.091416 -1.220344,1.091416 l -0.541493,-0.06744 v -6.710154 h 0.541493 c 0.54794,0 0.918853,0.09124 1.111748,0.265788 l 0.108596,1.191087 z"
       id="path1722"
       inkscape:connector-curvature="0"
       style="fill:#ffffff;stroke-width:0.49587303" /><polygon
       style="fill:#ffffff"
       points="193.717,223.168 185.589,223.168 185.589,212.237 193.717,212.237 193.717,203.502 173.505,203.635 173.505,256.824 193.717,256.695 193.717,247.96 185.589,247.96 185.589,231.765 193.717,231.765 "
       id="polygon1724"
       transform="matrix(0.49587304,0,0,0.49587304,1.4611016,-87.447057)" /><path
       d="m 103.0045,13.464098 -3.596572,26.441438 h 5.605352 l 0.42099,-5.220551 h 2.43226 l 0.45819,5.220551 h 5.67328 l -3.73541,-26.441438 z m 2.78085,16.892411 0.83208,-10.149033 0.92976,10.17829 z"
       id="path1726"
       inkscape:connector-curvature="0"
       style="fill:#ffffff;stroke-width:0.49587303" /><polygon
       style="fill:#ffffff"
       points="226.515,212.237 232.844,212.237 232.844,256.824 244.969,256.824 244.857,212.237 251.182,212.237 251.107,203.502 226.452,203.502 "
       id="polygon1728"
       transform="matrix(0.49587304,0,0,0.49587304,1.4611016,-87.447057)" /><polygon
       style="fill:#ffffff"
       points="268.236,203.502 255.939,203.502 255.939,256.824 268.223,256.824 "
       id="polygon1730"
       transform="matrix(0.49587304,0,0,0.49587304,1.4611016,-87.447057)" /><polygon
       style="fill:#ffffff"
       points="285.145,203.502 273.633,203.57 281.305,256.824 294.812,256.824 302.201,203.502 290.617,203.502 287.92,238.964 "
       id="polygon1732"
       transform="matrix(0.49587304,0,0,0.49587304,1.4611016,-87.447057)" /><polygon
       style="fill:#ffffff"
       points="326.461,223.168 319.043,223.168 319.043,212.237 326.461,212.237 326.461,203.608 306.965,203.635 306.965,256.824 326.461,256.695 326.461,247.96 319.043,247.96 319.043,231.765 326.461,231.765 "
       id="polygon1734"
       transform="matrix(0.49587304,0,0,0.49587304,1.4611016,-87.447057)" /><path
       d="m 182.25641,14.290223 c -0.79786,-0.549923 -2.60928,-0.826125 -5.42832,-0.826125 h -6.79991 v 26.441438 h 6.87032 c 2.82053,0 4.61708,-0.277193 5.39163,-0.826124 0.96447,-0.661495 1.44597,-2.234404 1.44597,-4.72567 V 30.08973 c 0,-1.255551 -0.15472,-2.160023 -0.45819,-2.709946 -0.35455,-0.728934 -1.09637,-1.279849 -2.22151,-1.653737 1.80894,-0.394219 2.7149,-1.728613 2.7149,-3.99872 v -2.773914 c -4.9e-4,-2.447629 -0.50777,-3.999712 -1.51489,-4.66319 z m -4.50947,20.526168 c 0,0.616867 -0.42595,0.892076 -1.27142,0.826125 l -0.48992,-0.03273 v -7.635949 h 0.46563 c 0.6005,0.02331 0.96348,0.117026 1.09836,0.281656 0.1319,0.166614 0.19735,0.511741 0.19735,1.041334 z m 0,-12.394346 c 0,0.617362 -0.41752,0.903481 -1.24662,0.858852 l -0.5172,-0.03372 v -5.486836 h 0.45819 l 1.05571,0.265788 c 0.16463,0.178019 0.24992,0.518188 0.24992,1.025962 z"
       id="path1736"
       inkscape:connector-curvature="0"
       style="fill:#ffffff;stroke-width:0.49587303" /><polygon
       style="fill:#ffffff"
       points="384.643,203.502 372.555,203.502 372.555,256.759 393.703,256.824 393.703,248.095 384.643,248.095 "
       id="polygon1738"
       transform="matrix(0.49587304,0,0,0.49587304,1.4611016,-87.447057)" /><path
       d="m 209.91472,14.223776 c -0.77207,-0.506286 -2.5706,-0.760669 -5.38865,-0.760669 -3.03127,0 -4.89972,0.331243 -5.60287,0.992737 -0.72745,0.550915 -1.09439,2.037047 -1.09439,4.46137 v 15.434544 c 0,2.444655 0.40215,3.977398 1.19704,4.593768 0.79885,0.616866 2.65639,0.939184 5.56815,0.960506 2.96285,0.02231 4.83378,-0.285623 5.62221,-0.926786 0.78943,-0.637197 1.18266,-2.169445 1.18266,-4.59476 V 18.91771 c -10e-4,-2.467464 -0.49339,-4.031944 -1.48415,-4.693934 z m -4.43856,20.556913 c 0,0.552898 -0.28364,0.806785 -0.86182,0.762156 -0.59753,-0.02231 -0.90051,-0.464633 -0.90051,-1.321005 V 18.554731 c 0,-0.507774 0.28265,-0.747777 0.84844,-0.724966 0.60992,0 0.91637,0.418021 0.91637,1.253071 z"
       id="path1740"
       inkscape:connector-curvature="0"
       style="fill:#ffffff;stroke-width:0.49587303" /><path
       d="m 227.45623,36.358061 c 0.0521,-0.546452 0.0793,-1.165302 0.0793,-1.873904 V 18.852255 c 0,-2.445646 -0.58414,-3.745825 -1.54564,-4.40732 -0.77554,-0.506286 -2.46895,-1.012572 -5.29195,-1.012572 -2.98218,0 -4.51443,0.570254 -5.31527,1.197533 -0.79587,0.627775 -1.55357,1.863491 -1.55357,4.222359 v 15.63091 c 0,1.963161 0.54745,2.822013 1.13208,3.605493 0.5891,0.782487 1.62498,1.537206 3.62533,1.646298 l 4.36914,9.92e-4 2.77292,-0.320334 1.66217,1.666629 2.38713,-2.395067 z m -5.80518,-1.577372 c 0,0.530584 -0.31588,0.828108 -0.95307,0.896042 -0.53753,-0.04463 -0.80778,-0.497856 -0.80778,-1.3577 V 18.522499 c 0,-0.530584 0.28066,-0.792405 0.84447,-0.792405 0.63323,0 0.93968,0.418517 0.91638,1.254559 z"
       id="path1742"
       inkscape:connector-curvature="0"
       style="fill:#ffffff;stroke-width:0.49587303" /></g><path
     style="fill:#ff5a14;fill-opacity:1;stroke-width:0.47947383"
     inkscape:connector-curvature="0"
     id="path1744"
     d="m 29.690602,50.314824 h -1.401023 v 6.942302 l 1.425475,0.02877 c 0.748939,0.06185 1.125805,-0.188432 1.125805,-0.749897 v -5.018653 c 0,-0.479951 -0.05753,-0.796405 -0.175967,-0.94648 -0.11891,-0.149116 -0.441115,-0.235422 -0.97429,-0.256039 z" /><path
     style="fill:#ff5a14;fill-opacity:1;stroke-width:0.47947383"
     inkscape:connector-curvature="0"
     id="path1746"
     d="m 29.690602,60.126296 h -1.401023 v 6.942301 l 1.425475,0.02972 c 0.748939,0.05993 1.125805,-0.189871 1.125805,-0.750855 v -5.018653 c 0,-0.479474 -0.05753,-0.797365 -0.175967,-0.946961 -0.11891,-0.148636 -0.441115,-0.235901 -0.97429,-0.255559 z" /><path
     style="fill:#ff5a14;fill-opacity:1;stroke-width:0.47947383"
     inkscape:connector-curvature="0"
     id="path1748"
     d="m 44.078652,75.000053 v -32.13817 c 0,-2.893145 -2.344147,-5.239211 -5.23921,-5.239211 H 6.6993531 c -2.8921861,0 -5.2382515,2.346545 -5.2382515,5.239211 v 32.13817 c 0,2.893625 2.3460654,5.242567 5.2382515,5.242567 H 38.839442 c 0.389333,0 0.762363,-0.04986 1.12868,-0.129936 l 3.250833,3.251311 3.826681,-3.829078 -3.168843,-3.170281 c 0.116034,-0.438239 0.201859,-0.889904 0.201859,-1.364583 z M 21.13631,55.115315 h -3.865519 v -3.095003 c 0,-0.78298 -1.069705,-1.173272 -1.633566,-1.173272 -0.456459,0 -1.471984,0.401319 -1.471984,1.204917 v 13.819394 c 0,0.402759 0.06665,0.697635 0.195624,0.888945 0.129458,0.190352 1.209233,0.275697 1.470545,0.25508 0.498175,0.04027 1.439381,-0.21001 1.439381,-0.753734 v -5.587786 h 3.865519 v 5.261266 c 0,2.22332 -0.343304,3.620506 -1.037103,4.19156 -0.690442,0.571054 -1.600963,0.845791 -4.217451,0.826134 -2.638065,-0.0187 -4.101419,-0.492899 -4.794738,-1.022719 C 10.396096,69.396443 9.8571675,68.188168 9.8571675,65.903955 V 51.839071 c 0,-2.183045 0.7786645,-3.585985 1.4480105,-4.105735 0.627633,-0.59982 1.834947,-0.841956 4.514726,-0.822776 2.635187,0.02061 3.581669,0.301589 4.313825,0.841955 0.689485,0.602221 1.026075,1.973995 1.00354,4.118682 z m 14.548673,-0.69284 c 0,2.064615 -0.799762,3.276246 -2.404082,3.63681 0.998265,0.340906 1.655144,0.840038 1.964406,1.501712 0.271381,0.50057 0.40947,1.32143 0.40947,2.463056 v 3.878944 c 0,2.265513 -0.429609,3.699141 -1.282114,4.299442 -0.689004,0.501049 -2.281815,0.748938 -4.776997,0.748938 H 23.508747 V 46.908163 h 6.024107 c 2.49806,0 4.102858,0.251723 4.808164,0.751335 0.894219,0.600781 1.343007,2.015228 1.343007,4.23807 z" /><path
     inkscape:connector-curvature="0"
     id="path5767"
     d="m 14.573221,70.848599 c -2.8098,-0.282796 -3.811658,-0.858062 -4.362527,-2.504951 -0.22197,-0.66361 -0.2384326,-1.307873 -0.2384326,-9.331523 v -8.618699 l 0.2988366,-0.864793 c 0.407173,-1.178304 1.122735,-1.980101 2.010572,-2.252874 0.90178,-0.277055 4.102994,-0.395704 5.520075,-0.204593 2.817215,0.379936 3.251699,1.137928 3.251699,5.672831 v 2.379995 h -1.879263 -1.879266 v -1.749661 c 0,-1.588273 -0.02438,-1.774048 -0.264384,-2.014047 -0.808152,-0.808149 -2.491898,-0.602496 -2.853475,0.348525 -0.08358,0.219806 -0.117364,2.944556 -0.09398,7.577258 0.03404,6.743613 0.05222,7.249713 0.267959,7.465382 0.185227,0.185159 0.447756,0.231353 1.314841,0.231353 1.69182,0 1.629033,0.13065 1.629033,-3.389805 v -2.896014 h 1.889534 1.889533 l -0.05376,3.790932 c -0.0341,2.404859 -0.109433,3.96236 -0.206029,4.259792 -0.235401,0.72482 -0.692875,1.318031 -1.256358,1.629127 -0.793691,0.438193 -3.125468,0.658884 -4.984616,0.471765 z"
     style="opacity:1;fill:#ffffff;fill-opacity:1;stroke:none;stroke-width:0.00195937;stroke-miterlimit:4;stroke-dasharray:none;stroke-opacity:1" /><path
     inkscape:connector-curvature="0"
     id="path5769"
     d="M 23.51593,58.9346 V 46.933461 l 4.438954,0.06088 c 5.533521,0.07588 6.120213,0.193434 6.934116,1.389314 0.544533,0.800093 0.615345,1.322208 0.615345,4.537067 0,2.870759 -0.01603,3.075483 -0.278996,3.564122 -0.357476,0.664243 -0.746624,1.022535 -1.454784,1.33943 l -0.567341,0.253881 0.567341,0.252514 c 0.805972,0.358726 1.383835,1.005976 1.618349,1.812673 0.16308,0.560979 0.189751,1.325063 0.14938,4.279604 -0.05444,3.982996 -0.14987,4.563914 -0.887984,5.404578 -0.768894,0.875722 -2.318272,1.096912 -7.732261,1.103856 l -3.402119,0.0044 z m 7.203499,7.926226 c 0.145848,-0.199461 0.183591,-0.84384 0.182187,-3.110508 -9.09e-4,-1.57241 -0.03684,-2.989822 -0.07972,-3.149807 -0.102118,-0.381031 -0.786487,-0.582103 -1.797768,-0.528198 l -0.777626,0.04145 -0.03465,3.36759 c -0.01906,1.852174 -0.0041,3.447414 0.03342,3.544979 0.05225,0.136165 0.326298,0.16678 1.17914,0.131732 0.91763,-0.03771 1.143095,-0.08946 1.295024,-0.297238 z m -0.07526,-9.792768 c 0.244109,-0.244109 0.259208,-0.432014 0.259208,-3.225753 0,-3.657022 0.05965,-3.520849 -1.557314,-3.555154 l -1.099577,-0.02333 -0.03448,3.531722 -0.03448,3.531723 h 1.103721 c 0.930915,0 1.144305,-0.04058 1.36293,-0.259209 z"
     style="opacity:1;fill:#ffffff;fill-opacity:1;stroke:none;stroke-width:0.00195937;stroke-miterlimit:4;stroke-dasharray:none;stroke-opacity:1" /></g></svg>