<?xml version="1.0" encoding="UTF-8" standalone="no"?>
<!-- Generator: Adobe Illustrator 16.0.0, SVG Export Plug-In . SVG Version: 6.00 Build 0)  -->

<svg
   xmlns:osb="http://www.openswatchbook.org/uri/2009/osb"
   xmlns:dc="http://purl.org/dc/elements/1.1/"
   xmlns:cc="http://creativecommons.org/ns#"
   xmlns:rdf="http://www.w3.org/1999/02/22-rdf-syntax-ns#"
   xmlns:svg="http://www.w3.org/2000/svg"
   xmlns="http://www.w3.org/2000/svg"
   xmlns:sodipodi="http://sodipodi.sourceforge.net/DTD/sodipodi-0.dtd"
   xmlns:inkscape="http://www.inkscape.org/namespaces/inkscape"
   version="1.1"
   id="Capa_1"
   x="0px"
   y="0px"
   width="44"
   height="40.299999"
   viewBox="0 0 44 40.3"
   xml:space="preserve"
   sodipodi:docname="pencil-outline-forkio-40.svg"
   inkscape:version="0.92.4 (5da689c313, 2019-01-14)"><metadata
   id="metadata4828"><rdf:RDF><cc:Work
       rdf:about=""><dc:format>image/svg+xml</dc:format><dc:type
         rdf:resource="http://purl.org/dc/dcmitype/StillImage" /><dc:title></dc:title></cc:Work></rdf:RDF></metadata><defs
   id="defs4826"><marker
   inkscape:isstock="true"
   style="overflow:visible"
   id="Arrow1Lstart"
   refX="0"
   refY="0"
   orient="auto"
   inkscape:stockid="Arrow1Lstart"><path
     transform="matrix(0.8,0,0,0.8,10,0)"
     style="fill:none;fill-opacity:1;fill-rule:evenodd;stroke:#000000;stroke-width:1.00000003pt;stroke-opacity:1"
     d="M 0,0 5,-5 -12.5,0 5,5 Z"
     id="path2527"
     inkscape:connector-curvature="0" /></marker><linearGradient
   osb:paint="solid"
   id="linearGradient2523"><stop
     id="stop2521"
     offset="0"
     style="stop-color:#000000;stop-opacity:1;" /></linearGradient>
		
		
	</defs><sodipodi:namedview
   pagecolor="#ffffff"
   bordercolor="#666666"
   borderopacity="1"
   objecttolerance="10"
   gridtolerance="10"
   guidetolerance="10"
   inkscape:pageopacity="0"
   inkscape:pageshadow="2"
   inkscape:window-width="1366"
   inkscape:window-height="705"
   id="namedview4824"
   showgrid="false"
   inkscape:snap-global="true"
   inkscape:snap-bbox="false"
   inkscape:snap-nodes="true"
   inkscape:showpageshadow="true"
   inkscape:zoom="8.8456917"
   inkscape:cx="8.061053"
   inkscape:cy="20.347046"
   inkscape:window-x="-8"
   inkscape:window-y="-8"
   inkscape:window-maximized="1"
   inkscape:current-layer="g4791"
   units="px"
   inkscape:snap-grids="true" />
<g
   id="g4791"
   transform="translate(0,-571.73192)">
	
<g
   inkscape:label="Layer 1"
   id="layer1"
   transform="matrix(3.7795276,0,0,3.7795276,-0.54975006,-514.85979)"
   style="fill:#8d81ac;fill-opacity:1"><path
     style="fill:#8d81ac;fill-opacity:1;stroke:none;stroke-width:0.20605081px;stroke-linecap:butt;stroke-linejoin:miter;stroke-opacity:1"
     d="M 2.72962,288.83451 H 1.7185348 c -0.2086552,0.0498 -0.1866396,0.13925 -0.2295504,0.23273 v 2.57191 l -1.20673206,1.20674 c -0.0677403,0.11332 -0.0582966,0.13942 0.0223066,0.2352 l 1.10031366,0.99731 v 2.58668 c 0.00839,0.16936 0.1328928,0.26261 0.2819606,0.26261 h 1.1107575 c 0.1323321,0.001 0.1648165,-0.065 0.1818184,-0.14489 v -0.41527 c 0,-0.082 -0.072295,-0.14276 -0.1369215,-0.14474 H 2.2249625 v -2.05158 c -0.00333,-0.18308 -0.066924,-0.3646 -0.1598514,-0.46281 l -0.7496073,-0.74961 0.7735491,-0.77355 c 0.1002651,-0.12102 0.1268667,-0.22854 0.1516805,-0.38637 V 289.547 h 0.5456274 c 0.1610902,-0.1021 0.1194203,-0.0554 0.1851389,-0.21587 0,0 0.010356,-0.17812 1.941e-4,-0.26631 -0.061434,-0.19694 -0.072548,-0.19916 -0.2420738,-0.23031 z"
     id="path4895"
     inkscape:connector-curvature="0"
     sodipodi:nodetypes="cccccccccccccccccccccccc" /></g><path
   style="fill:#8d81ac;fill-opacity:1;stroke:none;stroke-width:0.05136904;stroke-opacity:1"
   d="m 20.199948,571.82635 c -0.424003,0.0242 -1.287706,0.21168 -1.408203,1.32227 l -3.207032,33.27734 v 0.002 h 0.002 l 4.212891,5.65625 5.841797,-4.64843 0.160156,-1.47657 h -0.002 l 2.636719,-24.88481 h 0.002 l 0.160156,-1.47656 h -0.002 l 0.533203,-5.33008 c 0.16067,-1.48077 -1.320312,-1.64062 -1.320312,-1.64062 l -7.375,-0.79883 c 0,0 -0.09304,-0.01 -0.234375,-0.002 z m 0.945312,2.50977 5.583985,0.64258 -0.519532,4.93359 -5.582031,-0.68359 z m -0.767578,7.36914 5.712891,0.72266 -2.522435,23.00147 c -0.517401,-0.0464 -5.795925,-0.54444 -5.795925,-0.54444 z"
   id="path4785"
   inkscape:connector-curvature="0"
   sodipodi:nodetypes="scccccccccccccccscccccccccc" /><g
   inkscape:label="Layer 1"
   id="layer1-9"
   transform="matrix(-3.7795276,0,0,3.7795276,44.450291,-514.85979)"
   style="fill:#8d81ac;fill-opacity:1"><path
     style="fill:#8d81ac;fill-opacity:1;stroke:none;stroke-width:0.20605081px;stroke-linecap:butt;stroke-linejoin:miter;stroke-opacity:1"
     d="M 2.72962,288.83451 H 1.7185348 c -0.2086552,0.0498 -0.1866396,0.13925 -0.2295504,0.23273 v 2.57191 l -1.20673206,1.20674 c -0.0677403,0.11332 -0.0582966,0.13942 0.0223066,0.2352 l 1.10031366,0.99731 v 2.58668 c 0.00839,0.16936 0.1328928,0.26261 0.2819606,0.26261 h 1.1107575 c 0.1323321,0.001 0.1648165,-0.065 0.1818184,-0.14489 v -0.41527 c 0,-0.082 -0.072295,-0.14276 -0.1369215,-0.14474 H 2.2249625 v -2.05158 c -0.00333,-0.18308 -0.066924,-0.3646 -0.1598514,-0.46281 l -0.7496073,-0.74961 0.7735491,-0.77355 c 0.1002651,-0.12102 0.1268667,-0.22854 0.1516805,-0.38637 V 289.547 h 0.5456274 c 0.1610902,-0.1021 0.1194203,-0.0554 0.1851389,-0.21587 0,0 0.010356,-0.17812 1.941e-4,-0.26631 -0.061434,-0.19694 -0.072548,-0.19916 -0.2420738,-0.23031 z"
     id="path4895-1"
     inkscape:connector-curvature="0"
     sodipodi:nodetypes="cccccccccccccccccccccccc" /></g></g>
<g
   id="g4793"
   transform="translate(0,-571.73192)">
</g>
<g
   id="g4795"
   transform="translate(0,-571.73192)">
</g>
<g
   id="g4797"
   transform="translate(0,-571.73192)">
</g>
<g
   id="g4799"
   transform="translate(0,-571.73192)">
</g>
<g
   id="g4801"
   transform="translate(0,-571.73192)">
</g>
<g
   id="g4803"
   transform="translate(0,-571.73192)">
</g>
<g
   id="g4805"
   transform="translate(0,-571.73192)">
</g>
<g
   id="g4807"
   transform="translate(0,-571.73192)">
</g>
<g
   id="g4809"
   transform="translate(0,-571.73192)">
</g>
<g
   id="g4811"
   transform="translate(0,-571.73192)">
</g>
<g
   id="g4813"
   transform="translate(0,-571.73192)">
</g>
<g
   id="g4815"
   transform="translate(0,-571.73192)">
</g>
<g
   id="g4817"
   transform="translate(0,-571.73192)">
</g>
<g
   id="g4819"
   transform="translate(0,-571.73192)">
</g>
<g
   id="g4821"
   transform="translate(0,-571.73192)">
</g>
</svg>