<?xml version="1.0" encoding="UTF-8" standalone="no"?>
<svg
   xmlns:dc="http://purl.org/dc/elements/1.1/"
   xmlns:cc="http://creativecommons.org/ns#"
   xmlns:rdf="http://www.w3.org/1999/02/22-rdf-syntax-ns#"
   xmlns:svg="http://www.w3.org/2000/svg"
   xmlns="http://www.w3.org/2000/svg"
   xmlns:sodipodi="http://sodipodi.sourceforge.net/DTD/sodipodi-0.dtd"
   xmlns:inkscape="http://www.inkscape.org/namespaces/inkscape"
   version="1.0"
   width="231pt"
   height="84pt"
   viewBox="0 0 231 84"
   preserveAspectRatio="xMidYMid meet"
   id="svg1054"
   sodipodi:docname="pixelbuddhanet.svg"
   inkscape:version="0.92.4 (5da689c313, 2019-01-14)">
  <defs
     id="defs1058" />
  <sodipodi:namedview
     pagecolor="#ffffff"
     bordercolor="#666666"
     borderopacity="1"
     objecttolerance="10"
     gridtolerance="10"
     guidetolerance="10"
     inkscape:pageopacity="0"
     inkscape:pageshadow="2"
     inkscape:window-width="1366"
     inkscape:window-height="705"
     id="namedview1056"
     showgrid="false"
     inkscape:zoom="2.6702376"
     inkscape:cx="147.51202"
     inkscape:cy="42.821402"
     inkscape:window-x="-8"
     inkscape:window-y="-8"
     inkscape:window-maximized="1"
     inkscape:current-layer="svg1054" />
  <metadata
     id="metadata1022">
Created by potrace 1.13, written by Peter Selinger 2001-2015
<rdf:RDF>
  <cc:Work
     rdf:about="">
    <dc:format>image/svg+xml</dc:format>
    <dc:type
       rdf:resource="http://purl.org/dc/dcmitype/StillImage" />
    <dc:title></dc:title>
  </cc:Work>
</rdf:RDF>
</metadata>
  <g
     id="g2809"
     transform="matrix(0.7498866,0,0,0.7498866,-1.6655855,13.80266)"
     style="fill:#ffffff">
    <path
       sodipodi:nodetypes="cccc"
       d="m 80.486846,21.621886 c -2.143865,1.182822 -1.700307,4.953067 0.59141,5.988036 2.296471,0.560358 4.240032,-0.379213 4.583435,-2.809203 0.369632,-3.178833 -2.365644,-4.879139 -5.174845,-3.178833 z"
       id="path1024"
       inkscape:connector-curvature="0"
       style="fill:#ffffff;stroke:none;stroke-width:0.07392637" />
    <path
       sodipodi:nodetypes="ccccccc"
       d="m 139.77579,36.037529 v 15.154905 l 6.68232,0.02145 -0.029,-30.405192 h -3.32668 -3.32669 z"
       id="path1026"
       inkscape:connector-curvature="0"
       style="fill:#ffffff;stroke:none;stroke-width:0.07392637" />
    <path
       sodipodi:nodetypes="csccccccccscccsc"
       d="m 226.26964,21.32618 c -0.074,0.369632 -0.1478,3.104907 -0.29569,6.135889 -0.14781,3.030981 -0.29572,5.766257 -0.36964,5.988036 0,0.295706 -1.25675,0.07393 -2.73527,-0.443558 -5.32271,-1.848159 -10.42363,0.81319 -12.05,6.283741 -1.03498,3.622393 0,7.984048 2.58743,10.423619 1.84815,1.700306 6.96578,1.789395 9.73998,1.774232 0.89913,-0.01677 8.98722,0.05976 9.03731,0.05642 V 36.037529 20.808696 h -2.95706 c -1.62638,0 -2.95706,0.22178 -2.95706,0.517484 z m -1.03496,18.33374 c 2.40144,5.549165 -2.73606,7.924503 -6.50552,5.988037 -2.22013,-1.498377 -2.10808,-5.173284 -0.44357,-6.949079 1.57296,-1.67811 5.61841,-1.108896 6.94909,0.961042 z"
       id="path1028"
       inkscape:connector-curvature="0"
       style="fill:#ffffff;stroke:none;stroke-width:0.07392637" />
    <path
       sodipodi:nodetypes="ccccccccccccccsc"
       d="m 251.40462,27.388143 v 6.579446 l -2.66135,-0.961042 c -7.46657,-2.587423 -14.56349,4.361656 -12.27178,12.049998 1.18282,3.918099 3.84417,6.135889 7.83619,6.579448 1.84816,0.221778 3.9181,0.203492 4.65736,-0.09222 0.7949,0.07549 9.09295,0.112064 9.09295,0.112064 V 36.037529 20.808696 h -3.32669 -3.32668 z m -0.73927,11.532513 c 3.07069,2.920483 0.22179,7.688343 -3.25277,7.76227 -4.43947,0.111277 -5.86753,-5.897069 -3.25275,-7.984048 2.48083,-1.98007 5.39662,-1.108896 6.50552,0.221778 z"
       id="path1030"
       inkscape:connector-curvature="0"
       style="fill:#ffffff;stroke:none;stroke-width:0.07392637" />
    <path
       sodipodi:nodetypes="ccsscccscsscccc"
       d="m 262.585,51.360917 6.39503,-0.0015 0.16692,-5.711409 c 0.13607,-4.655373 0.2957,-5.91411 1.47852,-7.096932 1.62639,-1.62638 2.73528,-1.848158 4.43558,-0.739264 0.81319,0.517486 1.18282,2.365645 1.40461,6.94908 0.22178,6.801225 0.59141,7.244785 5.10092,6.505521 1.55245,-0.295706 1.62637,-0.665338 1.62637,-6.875152 0,-7.096933 -0.73926,-9.610428 -3.32669,-11.01503 -1.7003,-0.887116 -7.02301,-0.739264 -9.38864,0.295706 -1.18282,0.517484 -1.33067,0 -1.33067,-6.135889 v -6.7273 h -3.32669 -3.25277 z"
       id="path1032"
       inkscape:connector-curvature="0"
       style="fill:#ffffff;stroke:none;stroke-width:0.07392637" />
    <path
       sodipodi:nodetypes="ccccccccccccc"
       d="m 54.390841,24.578941 c -0.165711,9.415174 -0.0098,16.717365 0,26.59119 2.244007,-0.03497 5.007503,-0.01263 7.315693,0.0223 -0.01055,-2.77304 -0.07111,-5.713674 0.07695,-8.575459 l 4.435581,-0.517485 c 5.322699,-0.665338 7.76227,-2.365644 9.166867,-6.283741 0.887117,-2.513497 0.887117,-3.326687 0,-6.135889 -1.552451,-4.805214 -4.287726,-6.135888 -13.38067,-6.50552 -7.023005,-0.295706 -7.170857,-0.295706 -7.614415,1.4046 z m 13.232819,6.061963 c 2.143865,3.252759 -0.277978,6.220188 -4.509509,5.544477 -2.030687,-0.03087 -4.088046,-3.555881 -1.4046,-6.209815 1.123599,-1.196215 4.657361,-1.256748 5.914109,0.665338 z"
       id="path1036"
       inkscape:connector-curvature="0"
       style="fill:#ffffff;stroke:none;stroke-width:0.07392637" />
    <path
       sodipodi:nodetypes="ccsccsscccccccccccc"
       d="m 161.21444,36.998571 v 14.119936 h 7.76227 c 8.72331,0 11.7543,-0.961042 12.93712,-4.139877 1.33067,-3.548465 0.88711,-6.209814 -1.55245,-8.649384 -1.92209,-1.848159 -2.14387,-2.513497 -1.47854,-3.622393 0.44356,-0.739264 0.81319,-2.735275 0.81319,-4.509507 0,-2.513497 -0.44356,-3.622393 -1.84815,-4.953067 -1.70032,-1.626381 -2.73528,-1.84816 -9.2408,-2.069939 l -7.39264,-0.295706 z m 11.90215,-6.875153 c 1.03497,1.25675 0.23677,3.488495 -1.77424,4.287731 -2.11387,0.319231 -3.9106,-1.433551 -3.17882,-3.548467 0.51748,-2.217791 3.32667,-2.661349 4.95306,-0.739264 z m 1.25675,15.154907 c -0.75102,1.278199 -4.5373,1.318912 -5.70732,-0.789663 -0.81319,-3.195902 0.98572,-4.973365 3.93309,-4.533036 1.84815,0.369632 3.69419,2.030148 1.77423,5.322699 z"
       id="path1038"
       inkscape:connector-curvature="0"
       style="fill:#ffffff;stroke:none;stroke-width:0.07392637" />
    <path
       sodipodi:nodetypes="cccscccc"
       d="m 79.15617,41.803785 v 9.504152 c 0,0 5.711951,-0.06232 6.599067,-0.04158 0.07903,-0.451407 0.05434,-3.400613 0.05434,-9.462576 v -9.16687 H 82.48289 79.156203 Z"
       id="path1040"
       inkscape:connector-curvature="0"
       style="fill:#ffffff;stroke:none;stroke-width:0.07392637" />
    <path
       sodipodi:nodetypes="cscccscsccsccccc"
       d="m 90.283701,32.323307 c 0,0.443558 6.614799,8.519435 6.614799,8.815141 0,0.295705 -7.519436,10.153698 -7.764309,10.429739 0.210927,-0.01493 6.573931,-0.01837 6.790152,-0.03396 l 5.705447,-5.738416 c 0,0 5.66515,5.43167 6.10131,5.771627 0.21641,0.168674 6.56523,-0.04599 6.56523,-0.04599 0,-3e-6 -7.7874,-10.161212 -7.7874,-10.456918 0,-0.295706 1.55245,-2.217791 3.54846,-4.287729 l 3.92415,-4.433439 c 0,0 -7.52634,-0.07187 -7.62628,-0.02606 l -4.42977,4.163795 -1.996008,-1.922086 c -0.708534,-0.674791 -1.714767,-1.913438 -2.452035,-2.213295 -0.634762,-0.08007 -6.312256,-0.04511 -7.193746,-0.0224 z"
       id="path1042"
       inkscape:connector-curvature="0"
       style="fill:#ffffff;stroke:none;stroke-width:0.07392637" />
    <path
       sodipodi:nodetypes="cccssccsscccsscc"
       d="m 119.66782,33.819737 c -6.06196,3.252761 -5.6184,13.972085 0.59141,16.929139 3.03098,1.404601 8.64939,1.404601 11.38466,0 1.92209,-1.034969 3.69632,-3.104908 3.69632,-4.435582 0,-0.379488 -1.57612,-0.321663 -4.05782,-0.482704 -1.15257,-0.07479 -3.44815,0.965687 -4.88727,1.221968 -2.88313,0.517484 -4.87914,-0.887117 -4.06595,-2.957055 0.29571,-0.887116 1.77423,-1.108896 7.09693,-1.108896 6.28374,0 6.65338,-0.07393 6.65338,-1.552454 0,-2.661349 -2.29172,-6.579446 -4.50951,-7.688342 -2.66135,-1.404601 -9.31473,-1.404601 -11.90215,0.07393 z m 8.57546,2.957055 c 0.66534,0.221779 0.98353,0.887116 0.98353,1.478528 0,0.739264 -0.70282,1.101399 -3.36417,1.101399 -2.77379,0 -4.86414,-0.879621 -2.4985,-2.210295 1.54496,-1.086407 3.25276,-1.034969 4.87914,-0.369632 z"
       id="path1044"
       inkscape:connector-curvature="0"
       style="fill:#ffffff;stroke:none;stroke-width:0.07392637" />
    <path
       sodipodi:nodetypes="scscccccsccs"
       d="m 186.67216,32.746632 c 0,0 -0.39668,11.940281 0.49044,14.527704 1.03496,2.957056 4.5095,4.583435 9.75827,4.583435 8.42761,0 10.27578,-2.291717 9.98007,-12.419629 l 7.4e-4,-6.737616 h -3.17958 -2.95704 l -0.22179,6.22013 c -0.22178,6.505521 -0.88712,7.76227 -3.84416,7.76227 -2.95706,0 -3.62241,-1.256749 -3.84419,-7.76227 l -0.0548,-6.24795 c 0,0 -6.39575,-0.1653 -6.12792,0.07393 z"
       id="path1046"
       inkscape:connector-curvature="0"
       style="fill:#ffffff;stroke:none;stroke-width:0.07392637" />
    <path
       sodipodi:nodetypes="cccccscsccccc"
       d="m 286.88927,44.095503 c 0.29571,4.953067 4.65736,8.205826 9.90613,7.466562 1.7933,0.316337 12.01343,0.243973 12.01343,0.243973 l -0.11126,-18.799491 -2.80921,-0.221779 c -1.55245,-0.14785 -3.25276,0.07393 -3.77024,0.517485 -0.51749,0.443558 -1.25675,0.443558 -1.92208,0.07393 -0.59141,-0.443558 -2.73528,-0.739264 -4.65736,-0.739264 -3.10491,0 -10.07619,2.722776 -8.6494,11.458588 z m 14.48958,-4.435583 c 2.80919,4.287731 -2.66136,9.240796 -6.50553,5.766257 -1.77424,-1.552454 -1.77424,-5.766257 0,-6.801225 2.29171,-1.404602 5.17484,-0.961044 6.50553,1.034968 z"
       id="path1048"
       inkscape:connector-curvature="0"
       style="fill:#ffffff;stroke:none;stroke-width:0.07392637" />
  </g>
  <g
     id="g2813"
     transform="matrix(0.7498866,0,0,0.7498866,-1.6655855,13.80266)">
    <rect
       y="22.287224"
       x="11.143913"
       height="10.791929"
       width="11.088955"
       id="rect20"
       style="opacity:1;fill:#f9490c;fill-opacity:1;stroke:none;stroke-width:0.01923608;stroke-miterlimit:4;stroke-dasharray:none;stroke-opacity:1" />
    <path
       sodipodi:nodetypes="cccc"
       inkscape:connector-curvature="0"
       id="path42"
       d="m 4.57054,35.628041 c 15.72825,10.931432 20.659937,5.369047 27.59019,-0.96133 l 7.979042,7.306114 C 37.989696,50.252285 10.646494,62.874359 4.57054,35.628041 Z"
       style="fill:#f9490c;fill-opacity:1;stroke:none;stroke-width:1.2354331px;stroke-linecap:butt;stroke-linejoin:miter;stroke-opacity:1" />
  </g>
</svg>
