<?xml version="1.0" encoding="UTF-8" standalone="no"?>
<!-- Generator: Adobe Illustrator 19.0.0, SVG Export Plug-In . SVG Version: 6.00 Build 0)  -->

<svg
   xmlns:dc="http://purl.org/dc/elements/1.1/"
   xmlns:cc="http://creativecommons.org/ns#"
   xmlns:rdf="http://www.w3.org/1999/02/22-rdf-syntax-ns#"
   xmlns:svg="http://www.w3.org/2000/svg"
   xmlns="http://www.w3.org/2000/svg"
   xmlns:sodipodi="http://sodipodi.sourceforge.net/DTD/sodipodi-0.dtd"
   xmlns:inkscape="http://www.inkscape.org/namespaces/inkscape"
   version="1.1"
   id="Layer_1"
   x="0px"
   y="0px"
   viewBox="0 0 224 84"
   xml:space="preserve"
   sodipodi:docname="smashing-magazine-logo.svg"
   width="224"
   height="84"
   inkscape:version="0.92.4 (5da689c313, 2019-01-14)"><metadata
   id="metadata3212"><rdf:RDF><cc:Work
       rdf:about=""><dc:format>image/svg+xml</dc:format><dc:type
         rdf:resource="http://purl.org/dc/dcmitype/StillImage" /><dc:title></dc:title></cc:Work></rdf:RDF></metadata><defs
   id="defs3210"><inkscape:path-effect
   effect="bspline"
   id="path-effect1448"
   is_visible="true"
   weight="33.333333"
   steps="2"
   helper_size="0"
   apply_no_weight="true"
   apply_with_weight="true"
   only_selected="false" /><inkscape:path-effect
   effect="bspline"
   id="path-effect5151"
   is_visible="true"
   weight="33.333333"
   steps="2"
   helper_size="0"
   apply_no_weight="true"
   apply_with_weight="true"
   only_selected="false" /><inkscape:path-effect
   effect="bspline"
   id="path-effect5147"
   is_visible="true"
   weight="33.333333"
   steps="2"
   helper_size="0"
   apply_no_weight="true"
   apply_with_weight="true"
   only_selected="false" />
	<radialGradient
   gradientUnits="userSpaceOnUse"
   r="69.516602"
   cy="68.7817"
   cx="199.5244"
   id="SVGID_1_"
   gradientTransform="translate(-26.96831,-18.943767)">
		<stop
   id="stop3192"
   style="stop-color:#EB5C2E"
   offset="0" />
		<stop
   id="stop3194"
   style="stop-color:#E8352E"
   offset="1" />
	</radialGradient>
	
	
	
	
<pattern
   patternUnits="userSpaceOnUse"
   width="38.404189"
   height="55.132195"
   patternTransform="translate(12.389036,2.856233)"
   id="pattern2075"><path
     sodipodi:nodetypes="cscscsssscssscsscccssscccccc"
     inkscape:connector-curvature="0"
     id="path5153"
     d="m 7.5262565,54.789273 c -1.26544,-0.446343 -2.120215,-0.78312 -3.562316,-1.403533 -1.480499,-0.636932 -3.80342497,-1.763907 -3.76885397,-1.828471 0.01421,-0.02654 1.06082697,-2.344514 2.32580697,-5.151042 1.26498,-2.806527 2.308047,-5.113516 2.317927,-5.126642 0.0099,-0.01313 0.199782,0.120442 0.422004,0.296816 1.698757,1.348274 4.204052,2.681513 6.5017015,3.459999 3.072777,1.041115 6.416228,1.363764 8.54257,0.824373 1.857484,-0.471189 3.373919,-1.565041 4.058358,-2.92742 0.412379,-0.820842 0.549369,-1.460899 0.50648,-2.366421 -0.05473,-1.155468 -0.382782,-2.100865 -1.10046,-3.171342 C 22.18999,35.039658 19.29243,33.07714 14.712987,31.261632 12.742018,30.480248 11.471531,29.904742 10.230763,29.231276 9.2034905,28.673691 7.6707705,27.726648 7.4299775,27.500717 7.3417175,27.417907 6.8894655,27.066935 6.4249625,26.720776 4.8628575,25.556655 3.6083975,24.33047 2.5780265,22.960546 L 2.1810885,22.4328 12.346928,22.41656 l 10.165837,-0.01624 1.300213,0.458334 c 4.370994,1.540804 7.285593,3.254696 9.8089,5.767995 1.462709,1.456908 2.396057,2.759049 3.243572,4.525202 2.335597,4.867195 1.992962,10.697759 -0.895686,15.241727 l -0.222882,0.350602 c -4.458698,1.010857 -9.398526,2.018539 -13.425773,2.989957 -3.999536,0.849899 -9.696343,2.35182 -13.7810075,3.398058 -0.02808,-0.0018 -0.484302,-0.156137 -1.013836,-0.342914 z"
     style="opacity:1;fill:#ffffff;fill-opacity:1;stroke:none;stroke-width:0.00097037;stroke-miterlimit:4;stroke-dasharray:none;stroke-opacity:1" /><path
     sodipodi:nodetypes="cccscccscsccscsccccc"
     inkscape:connector-curvature="0"
     id="path1450"
     d="m 1.8090135,21.781984 c -0.84229597,-1.316722 -1.47517197,-3.064845 -1.72287797,-4.75892 -0.08275,-0.565918 -0.106618,-1.516573 -0.06839,-2.723521 0.08012,-2.52928 0.404907,-3.983427 1.33416497,-5.973411 0.408616,-0.875041 1.71549,-2.8883114 2.101871,-3.237981 C 3.3827185,4.6548455 10.473294,3.1667825 13.736824,2.365874 17.137623,1.617717 22.239585,0.2703323 24.142654,0 c 2.654704,0.4570848 7.723088,1.9725838 10.086225,3.265788 0.734192,0.4017797 0.753769,0.4228414 0.647626,0.6967409 -0.0602,0.1553405 -0.84018,2.3121793 -1.733292,4.7929751 -0.893112,2.480796 -1.648868,4.551034 -1.679459,4.60053 -0.03059,0.0495 -0.324602,-0.115433 -0.653359,-0.366508 -2.677254,-2.04465 -7.478125,-3.383462 -11.458141,-3.195317 -3.564877,0.16852 -6.038006,2.071711 -6.040863,4.648731 -0.003,2.746415 3.031397,5.587527 8.076678,7.562099 l 0.939554,0.367713 -10.067863,0.0039 -10.0678635,0.0039 -0.382892,-0.598556 z"
     style="opacity:1;fill:#ffffff;fill-opacity:1;stroke:none;stroke-width:0.00158942;stroke-miterlimit:4;stroke-dasharray:none;stroke-opacity:1" /></pattern></defs><sodipodi:namedview
   pagecolor="#ffffff"
   bordercolor="#666666"
   borderopacity="1"
   objecttolerance="10"
   gridtolerance="10"
   guidetolerance="10"
   inkscape:pageopacity="0"
   inkscape:pageshadow="2"
   inkscape:window-width="1366"
   inkscape:window-height="705"
   id="namedview3208"
   showgrid="false"
   inkscape:zoom="2.2067773"
   inkscape:cx="124.96277"
   inkscape:cy="6.4054543"
   inkscape:window-x="-8"
   inkscape:window-y="-8"
   inkscape:window-maximized="1"
   inkscape:current-layer="Layer_1" />
<style
   type="text/css"
   id="style3190">
	.st0{fill:url(#SVGID_1_);}
	.st1{fill:#A9ACAE;}
	.st2{fill:#E9382D;}
	.st3{fill:#ED5C2C;}
</style>

<g
   id="g932"
   transform="translate(0,-12)"><path
     class="st0"
     d="m 82.43169,48.156233 c -1.1,-0.6 -2.7,-1.1 -4.9,-1.6 -2.2,-0.5 -3.6,-1 -4.2,-1.5 -0.4,-0.4 -0.7,-0.8 -0.7,-1.4 0,-0.6 0.2,-1 0.7,-1.4 0.7,-0.5 1.8,-0.8 3.1,-0.8 1.3,0 2.2,0.3 2.9,0.8 0.6,0.5 1.1,1.3 1.2,2.5 l 4.5,-0.2 c -0.1,-2.1 -0.8,-3.7 -2.2,-4.9 -1.4,-1.2 -3.5,-1.9 -6.4,-1.9 -1.7,0 -3.2,0.3 -4.4,0.8 -1.2,0.5 -2.2,1.3 -2.8,2.3 -0.6,1 -1,2.1 -1,3.2 0,1.8 0.7,3.3 2.1,4.5 1,0.9 2.7,1.6 5.1,2.2 1.9,0.5 3.1,0.8 3.6,1 0.8,0.3 1.3,0.6 1.6,1 0.3,0.4 0.5,0.8 0.5,1.4 0,0.8 -0.4,1.5 -1.1,2.2 -0.7,0.6 -1.8,0.9 -3.3,0.9 -1.4,0 -2.5,-0.3 -3.3,-1 -0.8,-0.7 -1.3,-1.8 -1.6,-3.3 l -4.4,0.4 c 0.3,2.5 1.2,4.4 2.7,5.7 1.5,1.3 3.7,2 6.5,2 1.9,0 3.6,-0.3 4.9,-0.8 1.3,-0.5 2.3,-1.4 3,-2.5 0.7,-1.1 1.1,-2.3 1.1,-3.6 0,-1.4 -0.3,-2.6 -0.9,-3.6 -0.4,-1.1 -1.2,-1.8 -2.3,-2.4 z m 63.3,0 c -1.1,-0.6 -2.7,-1.1 -4.9,-1.6 -2.2,-0.5 -3.6,-1 -4.2,-1.5 -0.4,-0.4 -0.7,-0.8 -0.7,-1.4 0,-0.6 0.2,-1 0.7,-1.4 0.7,-0.5 1.8,-0.8 3.1,-0.8 1.3,0 2.2,0.3 2.9,0.8 0.6,0.5 1.1,1.3 1.2,2.5 l 4.5,-0.2 c -0.1,-2.1 -0.8,-3.7 -2.2,-4.9 -1.4,-1.2 -3.5,-1.9 -6.4,-1.9 -1.7,0 -3.2,0.3 -4.4,0.8 -1.2,0.5 -2.2,1.3 -2.8,2.3 -0.6,1 -1,2.1 -1,3.2 0,1.8 0.7,3.3 2.1,4.5 1,0.9 2.7,1.6 5.1,2.2 1.9,0.5 3.1,0.8 3.6,1 0.8,0.3 1.3,0.6 1.6,1 0.3,0.4 0.5,0.8 0.5,1.4 0,0.8 -0.4,1.5 -1.1,2.2 -0.7,0.6 -1.8,0.9 -3.3,0.9 -1.4,0 -2.5,-0.3 -3.3,-1 -0.8,-0.7 -1.3,-1.8 -1.6,-3.3 l -4.4,0.4 c 0.3,2.5 1.2,4.4 2.7,5.7 1.5,1.3 3.7,2 6.5,2 1.9,0 3.6,-0.3 4.9,-0.8 1.3,-0.5 2.3,-1.4 3,-2.5 0.7,-1.1 1.1,-2.3 1.1,-3.6 0,-1.4 -0.3,-2.6 -0.9,-3.6 -0.4,-1.1 -1.3,-1.8 -2.3,-2.4 z m 25.5,12.3 h 4.7 v -22.4 h -4.7 z m 21.2,-7.4 -9.5,-15 h -4.6 v 22.4 h 4.4 v -14.6 l 9.4,14.6 h 4.7 v -22.4 h -4.4 z m -28.2,-6.2 h -9.1 v -8.8 h -4.6 v 22.4 h 4.6 v -9.8 h 9.1 v 9.8 h 4.6 v -22.4 h -4.6 z m -45.1,-8.8 -8.3,22.4 h 4.5 l 1.7,-5.1 h 8.5 l 1.9,5.1 h 4.7 l -8.4,-22.4 z m -0.6,13.5 2.9,-8.3 2.9,8.3 z m -19.7,2 -4.9,-15.5 h -7.2 v 22.7 h 4.7 v -15.6 l 4.9,15.6 h 4.8 l 4.9,-15.6 v 15.6 h 4.7 v -22.7 h -7.2 z m 110.9,-2.3 v 0 l 3,3 2.4,-0.3 c -1.3,1.4 -3.1,2.3 -5.1,2.3 -3.8,0 -7,-3.1 -7,-7 0,-3.9 3.1,-7 7,-7 2.5,0 4.6,1.3 5.9,3.2 l 4.1,-1.4 c -1.9,-3.6 -5.6,-6.1 -10,-6.1 -6.2,0 -11.2,5 -11.2,11.2 0,6.2 5,11.2 11.2,11.2 3.1,0 5.9,-1.2 7.9,-3.3 l -0.1,2.1 2.8,2.8 2.3,-13.1 z"
     id="path3197"
     inkscape:connector-curvature="0"
     style="fill:url(#SVGID_1_)" /><path
     class="st1"
     d="m 118.93169,74.556233 h 3.8 v 2.4 c -0.4,0.4 -1,0.7 -1.7,0.9 -0.7,0.3 -1.4,0.4 -2.1,0.4 -1.4,0 -2.6,-0.4 -3.5,-1.3 -0.9,-0.9 -1.3,-2.2 -1.3,-3.9 0,-1.1 0.2,-2.1 0.6,-2.9 0.4,-0.8 1,-1.4 1.7,-1.8 0.7,-0.4 1.5,-0.6 2.5,-0.6 0.7,0 1.2,0.1 1.8,0.3 0.5,0.2 0.9,0.5 1.3,0.9 0.3,0.4 0.6,0.9 0.8,1.6 l 1.6,-0.4 c -0.2,-0.9 -0.6,-1.7 -1,-2.2 -0.5,-0.5 -1.1,-0.9 -1.8,-1.2 -0.7,-0.3 -1.6,-0.4 -2.5,-0.4 -1.3,0 -2.4,0.2 -3.4,0.7 -1,0.5 -1.7,1.3 -2.3,2.3 -0.6,1.1 -0.9,2.3 -0.9,3.7 0,1.4 0.3,2.6 0.9,3.6 0.6,1 1.4,1.8 2.4,2.3 1,0.5 2.1,0.8 3.4,0.8 1,0 1.9,-0.2 2.8,-0.5 0.3,-0.1 0.6,-0.3 0.9,-0.4 v 0.8 h 1.7 v -1.9 c 0,0 0,0 0,0 v -4.8 h -5.5 v 1.6 z m -41.5,1.1 c -0.3,0.9 -0.5,1.6 -0.7,2.1 l -0.6,-1.9 -3.1,-9.2 h -2.6 v 13 h 1.7 v -11 l 3.8,11 h 1.6 l 3.8,-10.9 v 10.9 h 1.7 v -13 h -2.3 z m 19.7,-9 -4.7,13 h 1.7 l 1.3,-3.9 h 5.1 l 1.4,3.9 h 1.9 l -5,-13 z m -1.2,7.6 1.4,-3.8 c 0.3,-0.8 0.5,-1.6 0.7,-2.5 0.2,0.7 0.5,1.6 0.9,2.7 l 1.3,3.6 z m 42.2,-7.6 -4.7,13 h 1.7 l 1.3,-3.9 h 5.1 l 1.4,3.9 h 1.9 l -5,-13 z m -1.2,7.6 1.4,-3.8 c 0.3,-0.8 0.5,-1.6 0.7,-2.5 0.2,0.7 0.5,1.6 0.9,2.7 l 1.3,3.6 z m 57,2.6 -6.4,-10.2 h -1.7 v 13 h 1.6 v -10.3 l 6.4,10.2 h 1.7 v -13 h -1.5 v 10.3 z m 14.3,1.2 v -4.4 h 6.8 v -1.5 h -6.8 v -4 h 7.2 v -1.5 h -8.8 v 13 h 9.1 v -1.6 z m -35.1,1.6 h 1.6 v -13 h -1.6 z m -16.8,-2.5 6.9,-9 v -1.5 h -8.8 v 1.5 h 6.8 c -0.4,0.4 -0.8,1 -1.3,1.5 l -6.3,8.3 v 1.6 h 9.7 v -1.5 h -7.8 z"
     id="path3199"
     inkscape:connector-curvature="0"
     style="fill:#a9acae" /><path
     sodipodi:nodetypes="cccccccccccccccccccsccc"
     class="st2"
     d="m 36.53169,26.856233 8.3,-2 c 2.3,-0.6 4.6,0.9 5.2,3.2 l 9.6,40.4 c 0.6,2.3 -0.9,4.6 -3,5.2 l -8.5,2 c 1.4,-2.1 2.6,-4.9 2.7,-8.4 0.1,-6.7 -3.5,-13.9 -15,-17.7 -15,-4.9 -10.7,-13.2 -3,-12.8 8.1,0.4 11.1,3.8 11.1,3.8 l 3.6,-10 c -4.7,-2.4 -2.492479,-2.396661 -11,-3.7 l -32.1,7.6 c -2.3,0.6 -3.8,2.9 -3.2,5.2 l 9.6,40.4 c 0.6,2.3 2.9,3.8 5.2,3.2 l 5,-1.2 c -1.9,-0.6 -5.3,-1.9 -8.5,-3.6 l 4.7,-10.4 c 0,0 5.5,4.9 13.3,4.9 7.8,0 11.3,-9.2 -3.4,-14.8 -7.8,-2.9 -14.4,-8.2 -14.8,-15.1 -0.3,-4.4 0.8,-8.2 3.7,-11.4"
     id="path3201"
     inkscape:connector-curvature="0"
     style="fill:#e9382d" /><path
     class="st3"
     d="m 48.93169,28.256233 c -0.4,-1.7 -2.2,-2.8 -3.9,-2.4 l -6,1.4 c 2.2,0.5 5.2,1.5 8.4,3.2 l -3.6,10 c 0,0 -3,-3.4 -11.1,-3.8 -7.7,-0.4 -12,7.9 3,12.8 3.9,1.3 6.9,3 9.2,4.9 0.1,0 0.2,-0.1 0.3,-0.1 2.9,-1.1 5.7,-4.9 7.8,-9.4 z m -36.6,14.8 c -0.2,-3.8 0.5,-7.1 2.6,-10 l -10.3,2.5 c -1.7,0.4 -2.8,2.2 -2.4,3.9 l 5.6,23.2 c 1.7,-2.2 6,-6.6 12,-8.3 -4.3,-2.9 -7.2,-6.7 -7.5,-11.3 z"
     id="path3203"
     inkscape:connector-curvature="0"
     style="fill:#ed5c2c" /><path
     sodipodi:nodetypes="ccccsssssssssssccsscscccsccssscccscc"
     inkscape:connector-curvature="0"
     id="path9465"
     d="m 18.837367,81.203148 c -1.792774,-0.684236 -5.867593,-2.49783 -6.070409,-2.701779 -0.146375,-0.147195 4.375813,-10.166236 4.570523,-10.126129 0.07657,0.01577 0.674985,0.390795 1.329803,0.833383 1.915336,1.294561 4.763192,2.58201 7.000808,3.1649 1.753074,0.456669 2.321621,0.527018 4.394727,0.54378 2.070423,0.01674 2.511224,-0.02972 3.37787,-0.356027 1.589643,-0.598529 2.712756,-1.553363 3.350228,-2.848251 0.499588,-1.014807 0.5386,-1.211483 0.464694,-2.342674 -0.107553,-1.64619 -0.715758,-2.899262 -2.140035,-4.409072 -1.819434,-1.928694 -4.19495,-3.355499 -8.454409,-5.077961 -2.576282,-1.041812 -3.446222,-1.46417 -5.18752,-2.518551 -4.620366,-2.797701 -7.609991,-6.27721 -8.672462,-10.093546 -0.394052,-1.415416 -0.486343,-4.798581 -0.175514,-6.433992 0.444564,-2.339058 1.383568,-4.498595 2.69442,-6.196677 l 0.711599,-0.984319 20.5,-4.8 1.695095,0.349313 c 1.946472,0.401115 5.126371,1.380276 7.374838,2.453554 1.45929,0.696575 1.742057,0.892527 1.645418,1.140246 -0.06418,0.164518 -0.847147,2.327359 -1.739926,4.806313 -0.892777,2.478954 -1.644852,4.531583 -1.671278,4.561397 -0.02643,0.02981 -0.429651,-0.219949 -0.896058,-0.555028 -2.464669,-1.770689 -6.773734,-2.983592 -10.605449,-2.985189 -2.721354,-0.0011 -4.87412,0.900943 -6.002799,2.515364 -0.419529,0.60008 -0.522267,0.938679 -0.576607,1.900354 -0.05526,0.977914 0.0033,1.31903 0.356346,2.076182 1.171603,2.512586 4.110525,4.504762 9.479234,6.425588 4.230215,1.513494 6.965514,2.983952 9.481512,5.097125 2.339672,1.965075 4.380752,5.189198 5.176846,8.177425 0.52068,1.954426 0.55727,5.931812 0.07115,7.734106 -0.388907,1.441882 -1.139518,3.236827 -1.807675,4.322721 l -0.496019,0.806132 -13.654021,3.095117 c -7.509712,1.702317 -13.69229,3.090669 -13.739063,3.085228 -0.04677,-0.0054 -0.850413,-0.302006 -1.785867,-0.659033 z"
     style="opacity:1;fill:#ffffff;fill-opacity:1;stroke:none;stroke-width:0.00257133;stroke-miterlimit:4;stroke-dasharray:none;stroke-opacity:1" /></g></svg>