<?xml version="1.0" encoding="UTF-8" standalone="no"?>
<svg
   xmlns:dc="http://purl.org/dc/elements/1.1/"
   xmlns:cc="http://creativecommons.org/ns#"
   xmlns:rdf="http://www.w3.org/1999/02/22-rdf-syntax-ns#"
   xmlns:svg="http://www.w3.org/2000/svg"
   xmlns="http://www.w3.org/2000/svg"
   xmlns:sodipodi="http://sodipodi.sourceforge.net/DTD/sodipodi-0.dtd"
   xmlns:inkscape="http://www.inkscape.org/namespaces/inkscape"
   width="147"
   height="84"
   viewBox="0 0 26.450495 15.116339"
   version="1.1"
   id="svg1971"
   sodipodi:docname="the-next-web-tnw.svg"
   inkscape:version="0.92.4 (5da689c313, 2019-01-14)">
  <metadata
     id="metadata1977">
    <rdf:RDF>
      <cc:Work
         rdf:about="">
        <dc:format>image/svg+xml</dc:format>
        <dc:type
           rdf:resource="http://purl.org/dc/dcmitype/StillImage" />
        <dc:title></dc:title>
      </cc:Work>
    </rdf:RDF>
  </metadata>
  <defs
     id="defs1975" />
  <sodipodi:namedview
     pagecolor="#ffffff"
     bordercolor="#666666"
     borderopacity="1"
     objecttolerance="10"
     gridtolerance="10"
     guidetolerance="10"
     inkscape:pageopacity="0"
     inkscape:pageshadow="2"
     inkscape:window-width="819"
     inkscape:window-height="584"
     id="namedview1973"
     showgrid="false"
     inkscape:zoom="2.1599805"
     inkscape:cx="74.043209"
     inkscape:cy="6.512404"
     inkscape:window-x="118"
     inkscape:window-y="17"
     inkscape:window-maximized="0"
     inkscape:current-layer="svg1971" />
  <linearGradient
     id="a"
     gradientUnits="userSpaceOnUse"
     x1="593.93298"
     y1="-267.10001"
     x2="628.16302"
     y2="-286.86301"
     gradientTransform="matrix(0.05874332,0,0,-0.05874332,-14.538971,-9.8579102)">
    <stop
       offset="0"
       stop-color="#c7140b"
       id="stop1930" />
    <stop
       offset=".75"
       stop-color="#ff3c1f"
       id="stop1932" />
  </linearGradient>
  <path
     d="M 23.605297,3.6529877 22.311886,7.4667206 21.514857,4.3579074 C 21.334162,3.652694 21.101716,3.652694 20.969426,3.652694 c 0,0 -0.290075,5.87e-5 -0.579973,0.083004 l -0.62497,2.7694535 1.206528,5.3718985 h 2.408477 l 3.045488,-8.2240626 z"
     id="path1935"
     inkscape:connector-curvature="0"
     style="fill:url(#a);stroke-width:0.05874331" />
  <linearGradient
     id="b"
     gradientUnits="userSpaceOnUse"
     x1="502.53601"
     y1="-287.936"
     x2="548.487"
     y2="-314.466"
     gradientTransform="matrix(0.05874332,0,0,-0.05874332,-14.538971,-9.8579102)">
    <stop
       offset="0"
       stop-color="#c7140b"
       id="stop1937" />
    <stop
       offset=".75"
       stop-color="#ff3c1f"
       id="stop1939" />
  </linearGradient>
  <path
     d="M 17.524658,7.4762376 16.535245,4.3644279 c -0.211476,-0.665033 -0.514944,-0.7116752 -0.698752,-0.7116752 0,0 -0.345117,0 -0.711088,0.082946 v 4.8328691 l 1.292353,3.3083652 0.377896,5.9e-5 1.264333,-0.08295 z"
     id="path1942"
     inkscape:connector-curvature="0"
     style="fill:url(#b);stroke-width:0.05874331" />
  <linearGradient
     id="c"
     gradientUnits="userSpaceOnUse"
     x1="568.94202"
     y1="-369.99799"
     x2="568.94202"
     y2="-230.002"
     gradientTransform="matrix(0.05874332,0,0,-0.05874332,-14.538971,-9.8579102)">
    <stop
       offset="0"
       stop-color="#ff3c1f"
       id="stop1944" />
    <stop
       offset=".85"
       stop-color="#ff3c1f"
       id="stop1946" />
    <stop
       offset=".95"
       stop-color="#f70"
       id="stop1948" />
  </linearGradient>
  <path
     d="m 20.969426,3.6531639 -2.186721,5.271e-4 c -0.163482,0 -0.595774,-5.271e-4 -0.714905,0.7042148 L 16.795654,11.87705 h 1.993807 l 1.640113,-7.5191426 c 0.153791,-0.7049197 0.490977,-0.7047435 0.539852,-0.7047435 z"
     id="path1951"
     inkscape:connector-curvature="0"
     style="fill:url(#c);stroke-width:0.05874331" />
  <linearGradient
     id="d"
     gradientUnits="userSpaceOnUse"
     x1="260.85101"
     y1="-305.70999"
     x2="388.129"
     y2="-283.267"
     gradientTransform="matrix(0.05874332,0,0,-0.05874332,-14.538971,-9.8579102)">
    <stop
       offset="0"
       stop-color="#ff3c1f"
       id="stop1953" />
    <stop
       offset=".7"
       stop-color="#ff3c1f"
       id="stop1955" />
    <stop
       offset="1"
       stop-color="#c7140b"
       id="stop1957" />
  </linearGradient>
  <path
     d="m 7.7238058,3.7356983 c 0,0 -0.3524594,-0.082711 -0.7048608,-0.082711 H 0 L 0.87010593,6.0027202 H 3.0243409 V 11.87705 H 5.3740733 V 6.0027202 h 2.3497325 z"
     id="path1960"
     inkscape:connector-curvature="0"
     style="fill:url(#d);stroke-width:0.05874331" />
  <linearGradient
     id="e"
     gradientUnits="userSpaceOnUse"
     x1="442.03699"
     y1="-370"
     x2="442.03699"
     y2="-229.994"
     gradientTransform="matrix(0.05874332,0,0,-0.05874332,-14.538971,-9.8579102)">
    <stop
       offset="0"
       stop-color="#ff3c1f"
       id="stop1962" />
    <stop
       offset=".85"
       stop-color="#ff3c1f"
       id="stop1964" />
    <stop
       offset=".95"
       stop-color="#f70"
       id="stop1966" />
  </linearGradient>
  <path
     d="m 13.598079,3.6527527 c -0.389233,0 -0.70492,0.3158627 -0.70492,0.7051547 V 7.3229766 L 10.358972,4.1187046 C 10.128287,3.8140619 9.7574409,3.65428 9.4231916,3.65428 L 7.0188858,3.65305 c 0,0 0.5873751,0 0.5873751,0.7049784 V 11.877109 H 9.9559938 V 7.3964636 l 3.1977512,4.0435354 c 0.233739,0.289781 0.577035,0.439225 0.922504,0.436934 h 1.166643 V 4.3577899 c 0,-0.4165489 0.265578,-0.7050959 0.59366,-0.7050959 z"
     id="path1969"
     inkscape:connector-curvature="0"
     style="fill:url(#e);stroke-width:0.05874331" />
</svg>
